<svg width="220" height="220" viewBox="0 0 220 220" fill="none" xmlns="http://www.w3.org/2000/svg">
<g id="satellite">
<path id="Vector" d="M217.632 132.759L200.748 115.876L179.531 137.093L196.415 153.976L217.632 132.759Z" fill="#1DEFFC"/>
<path id="Vector_2" d="M183.868 98.9948L200.749 115.875L179.531 137.093L162.651 120.212L165.398 117.465L183.868 98.9948Z" fill="#1DEFFC"/>
<path id="Vector_3" d="M104.122 19.2484L121.002 36.1288L102.532 54.5996L99.7852 57.3465L82.9043 40.4661L104.122 19.2484Z" fill="#1DEFFC"/>
<path id="Vector_4" d="M104.122 19.249L87.2418 2.36862L66.0249 23.5855L82.9053 40.4659L104.122 19.249Z" fill="#1DEFFC"/>
<path id="Vector_5" d="M132.026 68.5909C136.657 69.4983 141.076 71.7489 144.664 75.337C148.252 78.9251 150.503 83.3443 151.407 87.9719C145.991 90.8643 139.107 90.0298 134.539 85.4618C129.971 80.8939 129.133 74.0057 132.026 68.5909Z" fill="#1DEFFC"/>
<path id="Vector_6" d="M196.415 153.976L179.531 137.093L158.311 158.313L175.194 175.197L196.415 153.976Z" fill="#1DEFFC"/>
<path id="Vector_7" d="M162.651 120.212L179.531 137.093L158.31 158.313L141.43 141.433L155.525 127.337L162.651 120.212Z" fill="#1DEFFC"/>
<path id="Vector_8" d="M82.9044 40.4661L99.7852 57.3465L92.6598 64.472L78.5642 78.5675L61.6838 61.6867L82.9044 40.4661Z" fill="#1DEFFC"/>
<path id="Vector_9" d="M82.9045 40.4664L66.0241 23.586L44.8039 44.8063L61.6843 61.6867L82.9045 40.4664Z" fill="#1DEFFC"/>
<path id="Vector_10" d="M144.661 110.15L109.847 75.3365C115.875 69.3084 124.249 67.0607 132.026 68.5905C129.133 74.0057 129.971 80.8934 134.539 85.4614C139.106 90.0293 145.991 90.8638 151.407 87.9715C151.716 89.5458 151.871 91.1423 151.871 92.7417C151.874 99.0421 149.469 105.342 144.661 110.15Z" fill="#23464F"/>
<path id="Vector_11" d="M109.847 75.3365L144.661 110.15L140.731 114.08L130.859 123.952L120.098 134.712L111.184 143.627L76.3704 108.813L85.2847 99.8989L96.0456 89.138L105.917 79.2661L109.847 75.3365Z" fill="#CBCBCB"/>
<path id="Vector_12" opacity="0.25" d="M109.847 75.3365L144.661 110.15L140.732 114.079L130.859 123.952L120.099 134.712C120.099 134.712 136.584 122.661 111.184 143.626C127.936 105.865 109.847 75.3365 109.847 75.3365Z" fill="black"/>
<path id="Vector_13" d="M175.194 175.197L158.31 158.313L137.093 179.53L153.977 196.414L175.194 175.197Z" fill="#1DEFFC"/>
<path id="Vector_14" d="M141.43 141.433L158.311 158.313L137.093 179.531L120.212 162.651L123.484 159.379L141.43 141.433Z" fill="#1DEFFC"/>
<path id="Vector_15" d="M61.6838 61.6866L78.5642 78.5675L60.6187 96.513L57.347 99.7847L40.4661 82.9043L61.6838 61.6866Z" fill="#1DEFFC"/>
<path id="Vector_16" d="M61.6836 61.6872L44.8032 44.8068L23.5863 66.0237L40.4667 82.9041L61.6836 61.6872Z" fill="#1DEFFC"/>
<path id="Vector_17" d="M76.3704 108.813L111.184 143.627L104.122 150.689L98.0967 144.663L75.337 121.903L69.3084 115.875L76.3704 108.813Z" fill="#23464F"/>
<path id="Vector_18" d="M153.976 196.415L137.093 179.531L115.876 200.748L132.759 217.632L153.976 196.415Z" fill="#1DEFFC"/>
<path id="Vector_19" d="M137.092 179.532L120.212 162.651L98.995 183.868L115.875 200.748L137.092 179.532Z" fill="#1DEFFC"/>
<path id="Vector_20" d="M57.3466 99.7852L40.4662 82.9048L19.2493 104.122L36.1297 121.002L57.3466 99.7852Z" fill="#1DEFFC"/>
<path id="Vector_21" d="M40.4661 82.9048L23.5857 66.0244L2.3688 87.2413L19.2492 104.122L40.4661 82.9048Z" fill="#1DEFFC"/>
<path id="Vector_22" d="M104.122 19.2484L121.002 36.1288L102.532 54.5996L99.7851 57.3465L104.122 19.2484Z" fill="#A3F7FC"/>
<path id="Vector_23" d="M87.2416 2.36804L104.122 19.2484L82.9043 40.4661L87.2416 2.36804Z" fill="#A3F7FC"/>
<path id="Vector_24" d="M82.9043 40.4661L99.7852 57.3465L92.6597 64.4719L78.5641 78.5675L82.9043 40.4661Z" fill="#A3F7FC"/>
<path id="Vector_25" d="M66.0239 23.5857L82.9043 40.4661L61.6837 61.6866L66.0239 23.5857Z" fill="#A3F7FC"/>
<path id="Vector_26" d="M61.6838 61.6866L78.5642 78.5675L60.6187 96.513L57.347 99.7847L61.6838 61.6866Z" fill="#A3F7FC"/>
<path id="Vector_27" d="M40.4661 82.9043L61.6838 61.6867L44.8034 44.8063L40.4661 82.9043Z" fill="#A3F7FC"/>
<path id="Vector_28" d="M40.466 82.9044L57.3469 99.7847L36.1292 121.002L40.466 82.9044Z" fill="#A3F7FC"/>
<path id="Vector_29" d="M23.5857 66.024L40.4661 82.9043L19.2488 104.122L23.5857 66.024Z" fill="#A3F7FC"/>
<path id="Vector_30" d="M98.0977 144.663L97.3925 145.374L93.7784 148.983L89.1091 144.313L72.3575 161.065L77.0273 165.734L71.9692 170.792L71.7745 170.598L49.2075 148.036L54.2652 142.977L58.9355 147.642L75.6865 130.891L71.2109 126.415L71.0172 126.221L71.1214 126.117L74.6304 122.612L75.3361 121.902L98.0977 144.663Z" fill="#1DEFFC"/>
<path id="Vector_31" d="M93.7789 148.982L99.8577 155.061L83.1037 171.815L77.025 165.736L72.3557 161.067L89.1101 144.312L93.7789 148.982Z" fill="#23464F"/>
<path id="Vector_32" d="M71.0187 126.222L75.6875 130.89L58.9336 147.644L54.2648 142.976L48.186 136.897L64.9399 120.143L71.0187 126.222Z" fill="#23464F"/>
<path id="Vector_33" d="M104.122 153.057C103.517 153.057 102.911 152.826 102.448 152.363L96.4225 146.338C95.4976 145.413 95.4976 143.914 96.4221 142.989C97.347 142.064 98.846 142.064 99.771 142.989L104.122 147.34L142.987 108.476C147.192 104.271 149.507 98.6831 149.504 92.7431C149.504 91.2967 149.362 89.846 149.083 88.4295C148.654 86.231 147.897 84.122 146.834 82.1579C146.212 81.0075 146.639 79.5706 147.79 78.9483C148.94 78.325 150.377 78.7532 150.999 79.9036C152.291 82.2905 153.21 84.8523 153.731 87.5187C154.068 89.2327 154.24 90.9917 154.24 92.7426C154.243 99.9476 151.436 106.725 146.336 111.825L105.797 152.364C105.334 152.825 104.728 153.057 104.122 153.057Z" fill="#333333"/>
<path id="Vector_34" d="M144.663 77.7046C144.057 77.7046 143.451 77.4735 142.989 77.0107C142.17 76.1914 141.284 75.4322 140.356 74.754C139.299 73.9825 139.069 72.501 139.84 71.4449C140.611 70.3892 142.094 70.1581 143.149 70.9301C144.274 71.7518 145.347 72.6711 146.338 73.6623C147.262 74.5873 147.262 76.0867 146.337 77.0112C145.875 77.4735 145.27 77.7046 144.663 77.7046Z" fill="#333333"/>
<path id="Vector_35" d="M75.3365 124.271C74.7308 124.271 74.1241 124.04 73.6623 123.578L67.6342 117.55C66.7093 116.625 66.7093 115.125 67.6342 114.201L108.173 73.6623C114.544 67.2904 123.634 64.5254 132.483 66.2674C133.805 66.5264 135.117 66.8878 136.381 67.3411C137.612 67.7825 138.252 69.1379 137.811 70.3693C137.369 71.6007 136.013 72.2415 134.783 71.7991C133.742 71.4259 132.661 71.128 131.57 70.9144C124.268 69.477 116.775 71.7575 111.521 77.0112L72.6573 115.875L77.0107 120.229C77.9357 121.154 77.9357 122.653 77.0107 123.578C76.549 124.04 75.9427 124.271 75.3365 124.271Z" fill="#333333"/>
<path id="Vector_36" d="M144.661 112.045C144.176 112.045 143.691 111.859 143.321 111.49L108.507 76.6764C107.767 75.9366 107.767 74.737 108.507 73.9972C109.246 73.2574 110.446 73.2574 111.186 73.9972L146 108.811C146.74 109.551 146.74 110.75 146 111.49C145.631 111.859 145.146 112.045 144.661 112.045Z" fill="#333333"/>
<path id="Vector_37" d="M85.2875 102.267C85.18 102.267 85.072 102.26 84.9626 102.245L60.2966 98.8593C59.0008 98.6817 58.0948 97.4867 58.2728 96.1914C58.4509 94.8956 59.6458 93.9896 60.9407 94.1672L85.6067 97.5526C86.9025 97.7302 87.8085 98.9251 87.6304 100.22C87.468 101.407 86.4526 102.267 85.2875 102.267Z" fill="#333333"/>
<path id="Vector_38" d="M73.5984 162.305L77.0273 165.734L71.9691 170.792L71.775 170.598C72.5564 167.771 73.1532 165 73.5984 162.305Z" fill="#2234D3"/>
<path id="Vector_39" opacity="0.25" d="M97.3926 145.374L93.7789 148.983L89.1091 144.313L74.0152 159.407C75.2655 149.537 74.4841 140.728 73.0206 133.557C72.4855 130.948 71.865 128.556 71.2114 126.415C71.183 126.316 71.1499 126.216 71.1215 126.117L74.6309 122.612L97.3926 145.374Z" fill="black"/>
<path id="Vector_40" d="M105.915 81.6341C104.75 81.6341 103.735 80.7745 103.572 79.5876L100.187 54.9211C100.009 53.6258 100.915 52.4309 102.21 52.2533C103.51 52.0728 104.701 52.9822 104.878 54.2775L108.264 78.944C108.442 80.2393 107.536 81.4342 106.24 81.6118C106.131 81.627 106.022 81.6341 105.915 81.6341Z" fill="#333333"/>
<path id="Vector_41" d="M96.0428 91.5065C94.8777 91.5065 93.8623 90.6469 93.6998 89.46L90.3145 64.7935C90.1364 63.4982 91.0424 62.3033 92.3382 62.1257C93.6373 61.9457 94.8284 62.8546 95.006 64.1499L98.3914 88.8164C98.5695 90.1117 97.6634 91.3066 96.3677 91.4842C96.2582 91.4994 96.1498 91.5065 96.0428 91.5065Z" fill="#333333"/>
<path id="Vector_42" d="M123.481 161.747C122.316 161.747 121.301 160.887 121.138 159.701L117.753 135.034C117.575 133.739 118.481 132.544 119.777 132.366C121.077 132.186 122.267 133.095 122.445 134.39L125.83 159.057C126.008 160.352 125.102 161.547 123.806 161.725C123.697 161.74 123.588 161.747 123.481 161.747Z" fill="#333333"/>
<path id="Vector_43" d="M165.4 119.834C165.293 119.834 165.185 119.826 165.076 119.811L140.409 116.426C139.113 116.248 138.207 115.053 138.385 113.758C138.563 112.462 139.761 111.556 141.053 111.734L165.72 115.119C167.015 115.297 167.921 116.492 167.743 117.787C167.581 118.974 166.566 119.834 165.4 119.834Z" fill="#333333"/>
<path id="Vector_44" d="M155.529 129.706C155.421 129.706 155.313 129.699 155.204 129.684L130.537 126.298C129.241 126.121 128.335 124.926 128.513 123.63C128.691 122.335 129.886 121.428 131.181 121.606L155.848 124.992C157.144 125.169 158.05 126.364 157.871 127.659C157.709 128.846 156.694 129.706 155.529 129.706Z" fill="#333333"/>
<path id="Vector_45" d="M200.749 115.875L217.629 132.756L199.159 151.226L196.411 153.973L200.749 115.875Z" fill="#A3F7FC"/>
<path id="Vector_46" d="M183.868 98.9948L200.749 115.875L179.531 137.093L183.868 98.9948Z" fill="#A3F7FC"/>
<path id="Vector_47" d="M179.531 137.093L196.411 153.973L189.286 161.098L175.191 175.194L179.531 137.093Z" fill="#A3F7FC"/>
<path id="Vector_48" d="M162.651 120.212L179.531 137.093L158.31 158.313L162.651 120.212Z" fill="#A3F7FC"/>
<path id="Vector_49" d="M158.311 158.313L175.191 175.194L157.245 193.14L153.973 196.411L158.311 158.313Z" fill="#A3F7FC"/>
<path id="Vector_50" d="M137.093 179.531L158.31 158.313L141.43 141.433L137.093 179.531Z" fill="#A3F7FC"/>
<path id="Vector_51" d="M137.093 179.531L153.973 196.411L132.755 217.629L137.093 179.531Z" fill="#A3F7FC"/>
<path id="Vector_52" d="M120.212 162.651L137.093 179.531L115.875 200.749L120.212 162.651Z" fill="#A3F7FC"/>
<path id="Vector_53" d="M36.1293 123.37C35.5235 123.37 34.9168 123.139 34.4551 122.677L17.5742 105.797L0.693837 88.9159C0.249118 88.4716 0 87.8697 0 87.2412C0 86.6127 0.249118 86.0107 0.693837 85.5665L85.5674 0.693364C86.4915 -0.231121 87.9918 -0.231121 88.9159 0.693364L122.677 34.4546C123.602 35.3796 123.602 36.879 122.677 37.8035L37.8035 122.677C37.3417 123.139 36.735 123.37 36.1293 123.37ZM20.9231 102.447L36.1293 117.653L117.654 36.1293L87.2416 5.71741L5.71694 87.2412L20.9231 102.447Z" fill="#333333"/>
<path id="Vector_54" d="M97.7472 27.9913C97.1415 27.9913 96.5348 27.7601 96.0725 27.2979C95.148 26.3729 95.148 24.8735 96.073 23.949L102.448 17.5742C103.372 16.6497 104.872 16.6497 105.797 17.5742C106.722 18.4992 106.722 19.9986 105.797 20.9231L99.4214 27.2979C98.9592 27.7601 98.3529 27.9913 97.7472 27.9913Z" fill="#333333"/>
<path id="Vector_55" d="M19.2489 106.49C18.6432 106.49 18.0365 106.259 17.5747 105.797C16.6497 104.872 16.6497 103.372 17.5747 102.448L90.7052 29.3169C91.6292 28.3924 93.1296 28.3924 94.0536 29.3169C94.9785 30.2419 94.9785 31.7413 94.0536 32.6658L20.9231 105.797C20.4609 106.259 19.8547 106.49 19.2489 106.49Z" fill="#333333"/>
<path id="Vector_56" d="M99.7847 59.7145C99.179 59.7145 98.5723 59.4834 98.1105 59.0212L64.3497 25.2599C63.4248 24.335 63.4248 22.8355 64.3497 21.911C65.2737 20.9866 66.7741 20.9866 67.6981 21.911L101.459 55.6723C102.384 56.5972 102.384 58.0967 101.459 59.0212C100.997 59.4834 100.391 59.7145 99.7847 59.7145Z" fill="#333333"/>
<path id="Vector_57" d="M78.5642 80.9355C77.9585 80.9355 77.3518 80.7044 76.89 80.2422L69.8564 73.2086C68.9315 72.2836 68.9315 70.7842 69.8564 69.8597C70.7805 68.9352 72.2808 68.9352 73.2049 69.8597L80.2384 76.8933C81.1634 77.8182 81.1634 79.3177 80.2384 80.2422C79.7762 80.7039 79.17 80.9355 78.5642 80.9355Z" fill="#333333"/>
<path id="Vector_58" d="M66.7944 69.1658C66.1887 69.1658 65.582 68.9347 65.1202 68.4725L43.1287 46.4809C42.2037 45.556 42.2037 44.0565 43.1287 43.132C44.0527 42.2075 45.5531 42.2075 46.4771 43.132L68.4686 65.1236C69.3936 66.0485 69.3936 67.548 68.4686 68.4725C68.0069 68.9347 67.4007 69.1658 66.7944 69.1658Z" fill="#333333"/>
<path id="Vector_59" d="M57.347 102.153C56.7412 102.153 56.1345 101.922 55.6727 101.459L31.2743 77.0609C30.3493 76.136 30.3493 74.6365 31.2743 73.712C32.1983 72.7876 33.6987 72.7876 34.6227 73.712L59.0212 98.1105C59.9461 99.0354 59.9461 100.535 59.0212 101.459C58.5594 101.922 57.9527 102.153 57.347 102.153Z" fill="#333333"/>
<path id="Vector_60" d="M28.3696 73.1764C27.7639 73.1764 27.1572 72.9453 26.6954 72.4831L21.911 67.6987C20.986 66.7737 20.986 65.2743 21.911 64.3498C22.835 63.4253 24.3354 63.4253 25.2594 64.3498L30.0438 69.1342C30.9688 70.0591 30.9688 71.5586 30.0438 72.4831C29.5821 72.9448 28.9758 73.1764 28.3696 73.1764Z" fill="#333333"/>
<path id="Vector_61" d="M132.759 220C132.153 220 131.546 219.769 131.085 219.307L97.3206 185.543C96.3956 184.618 96.3956 183.118 97.3206 182.194L182.194 97.3201C183.118 96.3956 184.618 96.3956 185.542 97.3201L219.306 131.084C220.231 132.009 220.231 133.509 219.306 134.433L134.434 219.307C133.971 219.769 133.365 220 132.759 220ZM117.549 199.074L132.759 214.284L214.283 132.759L183.868 102.344L102.344 183.868L117.549 199.074Z" fill="#333333"/>
<path id="Vector_62" d="M171.008 147.983C170.403 147.983 169.796 147.752 169.334 147.29C168.409 146.365 168.409 144.865 169.334 143.941L199.075 114.201C199.999 113.276 201.499 113.276 202.423 114.201C203.348 115.126 203.348 116.625 202.423 117.55L172.683 147.29C172.221 147.752 171.614 147.983 171.008 147.983Z" fill="#333333"/>
<path id="Vector_63" d="M115.875 203.117C115.269 203.117 114.663 202.886 114.201 202.423C113.276 201.498 113.276 199.999 114.201 199.075L162.073 151.203C162.997 150.278 164.497 150.278 165.421 151.203C166.346 152.128 166.346 153.627 165.421 154.551L117.549 202.423C117.088 202.885 116.481 203.117 115.875 203.117Z" fill="#333333"/>
<path id="Vector_64" d="M196.415 156.345C195.809 156.345 195.202 156.113 194.741 155.651L185.646 146.556C184.721 145.631 184.721 144.132 185.646 143.207C186.57 142.283 188.07 142.283 188.994 143.207L198.089 152.302C199.014 153.227 199.014 154.727 198.089 155.651C197.627 156.113 197.021 156.345 196.415 156.345Z" fill="#333333"/>
<path id="Vector_65" d="M183.37 143.299C182.764 143.299 182.157 143.068 181.695 142.606L160.976 121.887C160.052 120.962 160.052 119.463 160.976 118.538C161.901 117.614 163.401 117.614 164.325 118.538L185.044 139.257C185.969 140.182 185.969 141.682 185.044 142.606C184.582 143.068 183.975 143.299 183.37 143.299Z" fill="#333333"/>
<path id="Vector_66" d="M175.194 177.565C174.588 177.565 173.981 177.334 173.519 176.872L139.755 143.108C138.83 142.183 138.83 140.683 139.755 139.759C140.679 138.834 142.18 138.834 143.104 139.759L176.868 173.523C177.793 174.448 177.793 175.947 176.868 176.872C176.406 177.334 175.799 177.565 175.194 177.565Z" fill="#333333"/>
<path id="Vector_67" d="M153.976 198.783C153.371 198.783 152.764 198.552 152.302 198.089L129.627 175.414C128.702 174.489 128.702 172.99 129.627 172.065C130.551 171.141 132.051 171.141 132.975 172.065L155.651 194.74C156.576 195.665 156.576 197.164 155.651 198.089C155.189 198.551 154.583 198.783 153.976 198.783Z" fill="#333333"/>
<path id="Vector_68" d="M126.405 171.211C125.799 171.211 125.192 170.98 124.731 170.518L118.538 164.325C117.613 163.4 117.613 161.901 118.538 160.976C119.462 160.052 120.962 160.052 121.886 160.976L128.079 167.169C129.004 168.094 129.004 169.593 128.079 170.518C127.617 170.98 127.011 171.211 126.405 171.211Z" fill="#333333"/>
<path id="Vector_69" d="M144.639 92.0474C140.332 92.0474 136.092 90.3632 132.864 87.136C127.628 81.9003 126.452 73.9991 129.937 67.4746C130.553 66.3209 131.988 65.8852 133.141 66.5018C134.295 67.118 134.73 68.5526 134.114 69.7063C131.658 74.3045 132.521 80.0949 136.213 83.7867C139.962 87.5358 145.62 88.3774 150.291 85.8824C151.445 85.2657 152.88 85.7019 153.496 86.8552C154.112 88.0089 153.676 89.4435 152.523 90.0596C150.021 91.3961 147.317 92.0474 144.639 92.0474Z" fill="#333333"/>
<path id="Vector_70" d="M111.184 145.995C110.578 145.995 109.972 145.764 109.51 145.301L98.3151 134.106C97.3902 133.181 97.3902 131.682 98.3151 130.757C99.2391 129.833 100.74 129.833 101.664 130.757L112.858 141.952C113.783 142.877 113.783 144.377 112.858 145.301C112.396 145.764 111.79 145.995 111.184 145.995Z" fill="#333333"/>
<path id="Vector_71" d="M94.9369 129.748C94.3311 129.748 93.7244 129.517 93.2627 129.054L74.6962 110.488C73.7713 109.563 73.7713 108.063 74.6962 107.139C75.6202 106.214 77.1206 106.214 78.0446 107.139L96.6111 125.705C97.536 126.63 97.536 128.13 96.6111 129.054C96.1493 129.517 95.5426 129.748 94.9369 129.748Z" fill="#333333"/>
<path id="Vector_72" d="M71.9668 173.161C71.3388 173.161 70.7364 172.912 70.2926 172.468L47.5324 149.708C47.0882 149.264 46.8386 148.662 46.8386 148.033C46.8386 147.405 47.0877 146.803 47.5324 146.359L52.5905 141.301C53.5146 140.376 55.0149 140.376 55.939 141.301C56.8639 142.226 56.8639 143.725 55.939 144.65L52.5555 148.033L71.9664 167.445L75.3503 164.061C76.2743 163.137 77.7747 163.137 78.6987 164.061C79.6237 164.986 79.6237 166.485 78.6987 167.41L73.6406 172.468C73.1973 172.912 72.5948 173.161 71.9668 173.161Z" fill="#333333"/>
<path id="Vector_73" d="M93.7789 151.35C93.1732 151.35 92.5665 151.119 92.1047 150.657C91.1798 149.732 91.1798 148.233 92.1047 147.308L94.7479 144.664L75.3371 125.253L72.6934 127.897C71.7694 128.821 70.269 128.821 69.345 127.897C68.42 126.972 68.42 125.472 69.345 124.548L73.6629 120.23C74.5869 119.305 76.0873 119.305 77.0113 120.23L99.7715 142.99C100.696 143.915 100.696 145.415 99.7715 146.339L95.4536 150.657C94.9909 151.118 94.3847 151.35 93.7789 151.35Z" fill="#333333"/>
<path id="Vector_74" d="M58.9341 150.013C58.3061 150.013 57.7036 149.763 57.2599 149.319L46.5118 138.571C46.0675 138.127 45.8179 137.525 45.8179 136.897C45.8179 136.268 46.0671 135.666 46.5118 135.222L63.2662 118.468C64.1902 117.544 65.6906 117.544 66.6146 118.468L77.3622 129.216C78.2872 130.141 78.2872 131.64 77.3622 132.565L60.6083 149.319C60.164 149.763 59.5621 150.013 58.9341 150.013ZM51.5349 136.897L58.9341 144.296L72.3391 130.891L64.9404 123.492L51.5349 136.897Z" fill="#333333"/>
<path id="Vector_75" d="M83.1037 174.183C82.4757 174.183 81.8733 173.933 81.4295 173.489L70.6819 162.741C69.7569 161.816 69.7569 160.317 70.6819 159.392L87.4358 142.638C88.3598 141.714 89.8602 141.714 90.7842 142.638L101.532 153.386C102.457 154.311 102.457 155.81 101.532 156.735L84.7779 173.489C84.3337 173.933 83.7317 174.183 83.1037 174.183ZM75.705 161.066L83.1037 168.466L96.5087 155.061L89.1095 147.662L75.705 161.066Z" fill="#333333"/>
<path id="Vector_76" d="M120.58 78.4448C119.835 78.4448 119.129 78.0029 118.828 77.2717C118.429 76.3046 118.89 75.1968 119.857 74.798C122.213 73.8271 124.701 73.3351 127.252 73.3351C128.298 73.3351 129.146 74.1833 129.146 75.2295C129.146 76.2757 128.298 77.1239 127.252 77.1239C125.198 77.1239 123.196 77.5199 121.301 78.3013C121.064 78.3989 120.82 78.4448 120.58 78.4448Z" fill="white"/>
<path id="Vector_77" d="M143.443 101.342C143.202 101.342 142.957 101.296 142.719 101.198C141.753 100.797 141.294 99.6886 141.694 98.7219C142.477 96.8327 142.874 94.8223 142.873 92.7459C142.873 91.7267 142.773 90.7056 142.577 89.7096C141.984 86.6729 140.506 83.9041 138.301 81.699C137.561 80.9588 137.561 79.7596 138.301 79.0198C139.04 78.28 140.241 78.28 140.98 79.0198C143.72 81.7601 145.558 85.2042 146.296 88.9803C146.539 90.2136 146.662 91.4814 146.662 92.745C146.663 95.3214 146.169 97.8207 145.194 100.172C144.892 100.902 144.187 101.342 143.443 101.342Z" fill="white"/>
<path id="Vector_78" d="M86.0463 111.024C85.5618 111.024 85.0763 110.839 84.7069 110.469C83.9667 109.729 83.9667 108.53 84.7069 107.79L87.5282 104.969C88.2675 104.229 89.4681 104.229 90.2069 104.969C90.9472 105.709 90.9472 106.908 90.2069 107.648L87.3857 110.469C87.0158 110.839 86.5308 111.024 86.0463 111.024Z" fill="white"/>
<path id="Vector_79" d="M94.4325 102.638C93.948 102.638 93.463 102.453 93.0932 102.083C92.3529 101.343 92.3529 100.144 93.0932 99.4039L108.373 84.1244C109.112 83.3846 110.312 83.3846 111.051 84.1244C111.792 84.8641 111.792 86.0638 111.051 86.8036L95.7719 102.083C95.4025 102.453 94.917 102.638 94.4325 102.638Z" fill="white"/>
<path id="Vector_80" d="M54.5503 138.718C54.0658 138.718 53.5804 138.533 53.211 138.163C52.4707 137.423 52.4707 136.224 53.211 135.484L63.8672 124.828C64.6065 124.088 65.8071 124.088 66.5459 124.828C67.2862 125.568 67.2862 126.767 66.5459 127.507L55.8897 138.163C55.5203 138.533 55.0348 138.718 54.5503 138.718Z" fill="white"/>
<path id="Vector_81" d="M78.5926 162.761C78.1081 162.761 77.6226 162.575 77.2532 162.206C76.5129 161.466 76.5129 160.266 77.2532 159.527L87.9094 148.871C88.6487 148.131 89.8493 148.131 90.5881 148.871C91.3284 149.611 91.3284 150.81 90.5881 151.55L79.9319 162.206C79.5625 162.575 79.0775 162.761 78.5926 162.761Z" fill="white"/>
</g>
</svg>
