<svg width="1179" height="1102" viewBox="0 0 1179 1102" fill="none" xmlns="http://www.w3.org/2000/svg">
<g id="system">
<g id="big-planet">
<path id="Vector" d="M561.451 49.0629C573.005 49.0629 582.371 39.6967 582.371 28.1428C582.371 16.589 573.005 7.22272 561.451 7.22272C549.897 7.22272 540.531 16.589 540.531 28.1428C540.531 39.6967 549.897 49.0629 561.451 49.0629Z" fill="#F9DAC5"/>
<path id="Vector_2" opacity="0.25" d="M540.531 28.1417C540.531 39.6965 549.894 49.0635 561.449 49.0635C563.241 49.0635 564.987 48.8382 566.645 48.4142C557.607 46.1015 550.924 37.9036 550.924 28.1417C550.924 18.3803 557.606 10.1859 566.645 7.87331C564.987 7.44872 563.241 7.22394 561.449 7.22394C549.894 7.22394 540.531 16.5868 540.531 28.1417Z" fill="black"/>
<path id="Vector_3" d="M561.45 52.0362C548.276 52.0362 537.557 41.3175 537.557 28.1428C537.557 14.9682 548.276 4.24945 561.45 4.24945C574.625 4.24945 585.344 14.9682 585.344 28.1428C585.344 41.3175 574.625 52.0362 561.45 52.0362ZM561.45 10.196C551.555 10.196 543.504 18.2471 543.504 28.1428C543.504 38.0386 551.555 46.0897 561.45 46.0897C571.346 46.0897 579.397 38.0386 579.397 28.1428C579.397 18.2471 571.346 10.196 561.45 10.196Z" fill="#333333"/>
<path id="Vector_4" d="M742.473 104.446C742.473 107.36 742.348 110.25 742.105 113.104H539.897C539.653 110.25 539.528 107.36 539.528 104.446C539.528 96.9413 540.343 89.621 541.895 82.5803H740.107C741.659 89.621 742.473 96.9413 742.473 104.446Z" fill="#F9DAC5"/>
<path id="Vector_5" d="M539.897 113.104H742.105C741.777 117.005 741.23 120.841 740.469 124.599H541.532C540.771 120.841 540.224 117.005 539.897 113.104Z" fill="#F9A064"/>
<path id="Vector_6" d="M541.532 124.599H740.469C738.15 136.129 733.868 146.958 727.993 156.71H554.008C548.133 146.958 543.851 136.129 541.532 124.599Z" fill="#F9911E"/>
<path id="Vector_7" d="M740.106 82.5803H541.895C543.792 73.922 546.801 65.6741 550.761 57.9971H731.24C735.201 65.6741 738.21 73.922 740.106 82.5803Z" fill="#F9700B"/>
<path id="Vector_8" d="M731.24 57.9971H550.761C552.521 54.5778 554.478 51.2715 556.601 48.0901H725.401C727.524 51.2715 729.48 54.5778 731.24 57.9971Z" fill="#F9DAC5"/>
<path id="Vector_9" d="M554.008 156.71H727.993C724.396 162.693 720.197 168.271 715.476 173.361H566.526C561.804 168.271 557.606 162.693 554.008 156.71Z" fill="#F9700B"/>
<path id="Vector_10" d="M725.401 48.0901H556.601C560.751 41.8878 565.568 36.1731 570.944 31.0412H711.058C716.433 36.1731 721.25 41.8878 725.401 48.0901Z" fill="#E0AA86"/>
<path id="Vector_11" d="M566.526 173.361H715.476C709.595 179.724 702.905 185.325 695.567 190.011H586.435C579.097 185.325 572.407 179.724 566.526 173.361Z" fill="#E0AA86"/>
<path id="Vector_12" d="M711.057 31.0412H570.944C589.158 13.6533 613.831 2.97327 641.001 2.97327C668.171 2.97327 692.843 13.6533 711.057 31.0412Z" fill="#F9A064"/>
<path id="Vector_13" d="M586.435 190.011H695.567C679.814 200.079 661.088 205.918 641.001 205.918C620.913 205.918 602.187 200.079 586.435 190.011Z" fill="#F9DAC5"/>
<path id="Vector_14" d="M711.058 34.0145H570.944C569.302 34.0145 567.971 32.683 567.971 31.0412C567.971 29.3993 569.302 28.0679 570.944 28.0679H711.058C712.699 28.0679 714.031 29.3993 714.031 31.0412C714.031 32.683 712.7 34.0145 711.058 34.0145Z" fill="#333333"/>
<path id="Vector_15" d="M676.145 51.0633H556.601C554.959 51.0633 553.627 49.7319 553.627 48.0901C553.627 46.4482 554.959 45.1168 556.601 45.1168H676.145C677.787 45.1168 679.118 46.4482 679.118 48.0901C679.118 49.7319 677.787 51.0633 676.145 51.0633Z" fill="#333333"/>
<path id="Vector_16" d="M725.401 51.0633H688.038C686.396 51.0633 685.065 49.7319 685.065 48.0901C685.065 46.4482 686.396 45.1168 688.038 45.1168H725.401C727.043 45.1168 728.374 46.4482 728.374 48.0901C728.374 49.7319 727.043 51.0633 725.401 51.0633Z" fill="#333333"/>
<path id="Vector_17" d="M608.651 60.9704H550.761C549.119 60.9704 547.788 59.6389 547.788 57.9971C547.788 56.3552 549.119 55.0238 550.761 55.0238H608.651C610.293 55.0238 611.624 56.3552 611.624 57.9971C611.624 59.6389 610.294 60.9704 608.651 60.9704Z" fill="#333333"/>
<path id="Vector_18" d="M731.24 60.9704H618.166C616.524 60.9704 615.192 59.6389 615.192 57.9971C615.192 56.3552 616.524 55.0238 618.166 55.0238H731.24C732.882 55.0238 734.213 56.3552 734.213 57.9971C734.213 59.6389 732.882 60.9704 731.24 60.9704Z" fill="#333333"/>
<path id="Vector_19" d="M688.038 127.572H541.532C539.89 127.572 538.559 126.241 538.559 124.599C538.559 122.957 539.89 121.626 541.532 121.626H688.038C689.68 121.626 691.012 122.957 691.012 124.599C691.012 126.241 689.681 127.572 688.038 127.572Z" fill="#333333"/>
<path id="Vector_20" d="M740.469 127.572H699.039C697.398 127.572 696.066 126.241 696.066 124.599C696.066 122.957 697.398 121.626 699.039 121.626H740.469C742.111 121.626 743.443 122.957 743.443 124.599C743.443 126.241 742.111 127.572 740.469 127.572Z" fill="#333333"/>
<path id="Vector_21" d="M574.756 159.684H554.008C552.366 159.684 551.035 158.352 551.035 156.71C551.035 155.069 552.366 153.737 554.008 153.737H574.756C576.397 153.737 577.729 155.069 577.729 156.71C577.729 158.352 576.398 159.684 574.756 159.684Z" fill="#333333"/>
<path id="Vector_22" d="M727.993 159.684H650.872C649.23 159.684 647.899 158.352 647.899 156.71C647.899 155.069 649.23 153.737 650.872 153.737H727.993C729.635 153.737 730.967 155.069 730.967 156.71C730.967 158.352 729.635 159.684 727.993 159.684Z" fill="#333333"/>
<path id="Vector_23" d="M715.476 176.334H566.526C564.884 176.334 563.552 175.003 563.552 173.361C563.552 171.719 564.884 170.388 566.526 170.388H715.476C717.118 170.388 718.449 171.719 718.449 173.361C718.449 175.003 717.118 176.334 715.476 176.334Z" fill="#333333"/>
<path id="Vector_24" d="M662.765 192.985H586.435C584.793 192.985 583.461 191.653 583.461 190.011C583.461 188.369 584.793 187.038 586.435 187.038H662.765C664.407 187.038 665.738 188.369 665.738 190.011C665.738 191.653 664.407 192.985 662.765 192.985Z" fill="#333333"/>
<path id="Vector_25" d="M695.566 192.985H676.145C674.503 192.985 673.172 191.653 673.172 190.011C673.172 188.369 674.503 187.038 676.145 187.038H695.566C697.208 187.038 698.54 188.369 698.54 190.011C698.54 191.653 697.208 192.985 695.566 192.985Z" fill="#333333"/>
<path id="Vector_26" d="M664.549 85.5536H541.895C540.253 85.5536 538.922 84.2221 538.922 82.5803C538.922 80.9384 540.253 79.607 541.895 79.607H664.549C666.191 79.607 667.523 80.9384 667.523 82.5803C667.523 84.2221 666.192 85.5536 664.549 85.5536Z" fill="#333333"/>
<path id="Vector_27" d="M740.107 85.5536H675.55C673.909 85.5536 672.577 84.2221 672.577 82.5803C672.577 80.9384 673.909 79.607 675.55 79.607H740.107C741.748 79.607 743.08 80.9384 743.08 82.5803C743.08 84.2221 741.748 85.5536 740.107 85.5536Z" fill="#333333"/>
<path id="Vector_28" d="M597.948 116.077H539.897C538.255 116.077 536.924 114.746 536.924 113.104C536.924 111.462 538.255 110.131 539.897 110.131H597.948C599.589 110.131 600.921 111.462 600.921 113.104C600.921 114.746 599.589 116.077 597.948 116.077Z" fill="#333333"/>
<path id="Vector_29" d="M608.772 116.077C608.582 116.077 608.385 116.06 608.195 116.018C608.005 115.982 607.815 115.923 607.636 115.851C607.458 115.774 607.285 115.685 607.125 115.578C606.958 115.471 606.809 115.346 606.673 115.209C606.12 114.656 605.799 113.889 605.799 113.104C605.799 112.319 606.12 111.558 606.673 110.999C606.809 110.862 606.958 110.743 607.125 110.63C607.285 110.523 607.458 110.434 607.636 110.357C607.815 110.285 608.005 110.226 608.195 110.19C609.158 109.994 610.187 110.309 610.877 110.999C611.014 111.142 611.139 111.29 611.246 111.451C611.353 111.617 611.442 111.79 611.519 111.968C611.591 112.147 611.65 112.331 611.692 112.521C611.727 112.718 611.745 112.908 611.745 113.104C611.745 113.3 611.727 113.491 611.692 113.687C611.65 113.877 611.591 114.062 611.519 114.24C611.442 114.418 611.353 114.597 611.246 114.757C611.139 114.918 611.014 115.072 610.877 115.209C610.324 115.762 609.557 116.077 608.772 116.077Z" fill="#333333"/>
<path id="Vector_30" d="M742.104 116.077H618.166C616.524 116.077 615.192 114.746 615.192 113.104C615.192 111.462 616.524 110.131 618.166 110.131H742.104C743.746 110.131 745.078 111.462 745.078 113.104C745.078 114.746 743.746 116.077 742.104 116.077Z" fill="#333333"/>
<path id="Vector_31" d="M685.419 31.2778C684.88 31.2778 684.335 31.131 683.844 30.8241C680.334 28.6257 676.639 26.6651 672.859 24.9971C671.357 24.334 670.677 22.5786 671.34 21.0759C672.004 19.5738 673.759 18.8935 675.261 19.5565C679.3 21.3399 683.25 23.4349 687 25.7844C688.392 26.6562 688.814 28.4907 687.942 29.8828C687.377 30.7837 686.409 31.2778 685.419 31.2778Z" fill="white"/>
<path id="Vector_32" d="M699.155 172.654C698.361 172.654 697.569 172.337 696.983 171.712C695.862 170.512 695.924 168.631 697.123 167.509C714.591 151.166 724.61 128.119 724.61 104.277C724.61 80.298 714.994 57.9792 697.534 41.4311C696.342 40.3012 696.291 38.4197 697.421 37.2274C698.551 36.0357 700.433 35.9852 701.624 37.1144C720.282 54.7966 730.556 78.6484 730.556 104.276C730.556 129.758 719.851 154.388 701.186 171.851C700.612 172.388 699.883 172.654 699.155 172.654Z" fill="white"/>
<path id="Vector_33" d="M686.648 182.443C685.675 182.443 684.721 181.966 684.151 181.088C683.258 179.711 683.649 177.87 685.027 176.976C686.543 175.992 688.048 174.946 689.501 173.868C690.819 172.889 692.682 173.165 693.661 174.484C694.639 175.803 694.364 177.664 693.045 178.643C691.492 179.795 689.884 180.912 688.264 181.963C687.764 182.288 687.203 182.443 686.648 182.443Z" fill="white"/>
<path id="Vector_34" d="M632.694 138.805C637.651 141.886 640.684 146.021 640.684 150.568C640.684 160.092 627.372 167.813 610.951 167.813C594.531 167.813 581.218 160.092 581.218 150.568C581.218 141.044 594.531 133.323 610.951 133.323C615.242 133.323 619.321 133.85 623.006 134.798" fill="#EDC3A6"/>
<path id="Vector_35" d="M610.951 170.786C592.612 170.786 578.245 161.905 578.245 150.568C578.245 139.23 592.612 130.349 610.951 130.349C615.397 130.349 619.702 130.877 623.748 131.919C625.338 132.329 626.295 133.95 625.886 135.54C625.476 137.13 623.857 138.088 622.265 137.678C618.703 136.761 614.897 136.296 610.952 136.296C596.446 136.296 584.192 142.832 584.192 150.568C584.192 158.304 596.446 164.839 610.952 164.839C625.458 164.839 637.712 158.304 637.712 150.568C637.712 147.251 635.372 143.97 631.125 141.33C629.731 140.463 629.303 138.63 630.17 137.235C631.037 135.841 632.869 135.413 634.264 136.28C640.322 140.045 643.658 145.119 643.658 150.568C643.658 161.905 629.291 170.786 610.951 170.786Z" fill="#333333"/>
<path id="Vector_36" d="M610.951 157.109C599.144 157.109 592.612 152.268 591.946 150.568C592.613 148.867 599.144 144.026 610.951 144.026C622.759 144.026 629.291 148.867 629.957 150.568C629.291 152.268 622.759 157.109 610.951 157.109Z" fill="#F9700B"/>
<path id="Vector_37" d="M610.951 160.082C598.901 160.082 590.563 155.187 589.177 151.653L588.751 150.568L589.177 149.482C590.563 145.948 598.901 141.053 610.951 141.053C623.002 141.053 631.34 145.948 632.725 149.482L633.151 150.568L632.725 151.653C631.34 155.187 623.003 160.082 610.951 160.082ZM596.253 150.568C598.607 152.046 603.441 154.136 610.952 154.136C618.462 154.136 623.297 152.046 625.651 150.568C623.297 149.089 618.462 147 610.952 147C603.441 147 598.607 149.089 596.253 150.568Z" fill="#333333"/>
<path id="Vector_38" opacity="0.25" d="M649.687 200.394C637.817 196.202 626.959 189.857 617.587 181.835C595.829 163.222 582.038 135.57 582.038 104.696C582.038 77.3175 592.885 52.4667 610.511 34.2166C620.221 24.161 631.99 16.1033 645.138 10.7276C650.62 8.48873 656.345 6.72081 662.257 5.46072C655.401 3.99846 648.292 3.22302 641.001 3.22302C627.419 3.22302 614.467 5.89304 602.627 10.7276C589.479 16.1033 577.711 24.161 568 34.2166C550.375 52.4667 539.528 77.3175 539.528 104.696C539.528 135.57 553.318 163.222 575.077 181.835C584.449 189.857 595.307 196.202 607.176 200.394C617.755 204.134 629.143 206.168 641.001 206.168C648.288 206.168 655.396 205.395 662.25 203.935C657.956 203.019 653.761 201.834 649.687 200.394Z" fill="black"/>
<path id="Vector_39" d="M641.001 208.892C621.018 208.892 601.596 203.229 584.833 192.517C577.301 187.707 570.407 181.941 564.342 175.379C559.481 170.139 555.146 164.372 551.46 158.243C545.29 148.002 540.969 136.879 538.617 125.185C537.834 121.322 537.268 117.34 536.934 113.353C536.682 110.41 536.554 107.412 536.554 104.446C536.554 96.8467 537.374 89.2749 538.991 81.9404C540.914 73.1609 543.985 64.6454 548.118 56.6341C549.895 53.1815 551.918 49.7509 554.127 46.4399C558.377 40.0895 563.344 34.1863 568.891 28.8909C588.407 10.2602 614.016 0 641.001 0C667.985 0 693.594 10.2602 713.111 28.8903C718.657 34.1852 723.624 40.0889 727.871 46.4363C730.083 49.7503 732.105 53.1809 733.883 56.6365C738.015 64.6454 741.087 73.1609 743.011 81.944C744.627 89.2761 745.447 96.8467 745.447 104.446C745.447 107.41 745.319 110.409 745.067 113.357C744.733 117.34 744.166 121.322 743.383 125.189C741.032 136.879 736.71 148.002 730.54 158.245C726.855 164.372 722.519 170.139 717.655 175.383C711.594 181.941 704.699 187.707 697.166 192.517C680.406 203.229 660.984 208.892 641.001 208.892ZM641.001 5.94659C615.552 5.94659 591.401 15.6223 572.997 33.1921C567.764 38.1884 563.078 43.7568 559.072 49.7438C556.989 52.8658 555.082 56.1019 553.405 59.3583C549.508 66.9122 546.613 74.9383 544.8 83.2171C543.275 90.1354 542.502 97.2773 542.502 104.446C542.502 107.244 542.623 110.072 542.86 112.851C543.175 116.615 543.709 120.367 544.446 124.009C546.664 135.035 550.738 145.52 556.555 155.177C560.032 160.957 564.119 166.395 568.706 171.34C574.429 177.532 580.931 182.97 588.035 187.506C603.84 197.607 622.155 202.946 641.001 202.946C659.847 202.946 678.161 197.607 693.965 187.507C701.07 182.969 707.572 177.532 713.292 171.343C717.881 166.395 721.969 160.958 725.445 155.179C731.263 145.52 735.337 135.035 737.554 124.013C738.292 120.367 738.826 116.615 739.141 112.856C739.379 110.071 739.499 107.243 739.499 104.446C739.499 97.2755 738.726 90.1342 737.202 83.2207V83.2171C735.388 74.9395 732.493 66.9128 728.597 59.3606C726.92 56.1013 725.012 52.8658 722.927 49.7408C718.922 43.7568 714.237 38.1878 709.004 33.1921C690.599 15.6223 666.449 5.94659 641.001 5.94659Z" fill="#333333"/>
<path id="Vector_40" d="M710.635 217.027C726.5 217.027 739.36 204.166 739.36 188.302C739.36 172.437 726.5 159.577 710.635 159.577C694.771 159.577 681.91 172.437 681.91 188.302C681.91 204.166 694.771 217.027 710.635 217.027Z" fill="#F9911E"/>
<path id="Vector_41" opacity="0.25" d="M681.91 188.3C681.91 204.165 694.767 217.028 710.632 217.028C713.094 217.028 715.491 216.719 717.768 216.136C705.358 212.96 696.182 201.704 696.182 188.3C696.182 174.896 705.358 163.645 717.768 160.47C715.491 159.887 713.094 159.578 710.632 159.578C694.767 159.578 681.91 172.434 681.91 188.3Z" fill="black"/>
<path id="Vector_42" d="M725.061 205.7C724.299 205.7 723.539 205.409 722.958 204.829C721.796 203.668 721.796 201.786 722.958 200.624C727.051 196.531 728.837 190.677 727.734 184.967C727.422 183.355 728.476 181.796 730.088 181.484C731.701 181.172 733.26 182.227 733.572 183.839C735.05 191.49 732.654 199.337 727.163 204.828C726.582 205.409 725.821 205.7 725.061 205.7Z" fill="white"/>
<path id="Vector_43" d="M710.635 220C693.156 220 678.937 205.78 678.937 188.302C678.937 170.823 693.157 156.603 710.635 156.603C728.114 156.603 742.334 170.823 742.334 188.302C742.334 205.78 728.114 220 710.635 220ZM710.635 162.55C696.436 162.55 684.884 174.102 684.884 188.302C684.884 202.501 696.436 214.053 710.635 214.053C724.835 214.053 736.387 202.501 736.387 188.302C736.387 174.102 724.835 162.55 710.635 162.55Z" fill="#333333"/>
<path id="Vector_44" d="M725.718 178.027C725.521 178.027 725.325 178.009 725.135 177.968C724.945 177.932 724.76 177.873 724.582 177.801C724.403 177.724 724.231 177.635 724.065 177.528C723.904 177.415 723.749 177.296 723.613 177.159C723.06 176.606 722.744 175.839 722.744 175.054C722.744 174.269 723.06 173.508 723.613 172.955C723.749 172.812 723.904 172.687 724.065 172.58C724.231 172.473 724.403 172.384 724.582 172.307C724.76 172.235 724.945 172.176 725.135 172.14C726.104 171.944 727.133 172.259 727.823 172.955C728.376 173.508 728.691 174.269 728.691 175.054C728.691 175.839 728.376 176.6 727.823 177.159C727.27 177.712 726.503 178.027 725.718 178.027Z" fill="white"/>
<path id="Vector_45" d="M700.326 179.111C700.135 179.111 699.939 179.093 699.749 179.052C699.558 179.016 699.368 178.957 699.19 178.885C699.011 178.808 698.839 178.719 698.678 178.612C698.512 178.505 698.363 178.38 698.226 178.243C697.673 177.69 697.352 176.923 697.352 176.138C697.352 175.353 697.673 174.586 698.226 174.033C698.363 173.896 698.512 173.771 698.678 173.664C698.839 173.557 699.011 173.468 699.19 173.391C699.368 173.319 699.558 173.26 699.749 173.224C700.129 173.147 700.528 173.147 700.908 173.224C701.099 173.26 701.283 173.319 701.467 173.391C701.646 173.468 701.818 173.557 701.979 173.664C702.139 173.771 702.294 173.896 702.431 174.033C702.984 174.586 703.299 175.353 703.299 176.138C703.299 176.923 702.984 177.69 702.431 178.243C702.294 178.38 702.139 178.505 701.979 178.612C701.818 178.719 701.646 178.808 701.467 178.885C701.283 178.957 701.099 179.016 700.908 179.052C700.718 179.093 700.522 179.111 700.326 179.111Z" fill="#333333"/>
<path id="Vector_46" d="M711.029 198.539C710.839 198.539 710.643 198.515 710.453 198.479C710.262 198.444 710.072 198.384 709.894 198.307C709.715 198.235 709.543 198.14 709.382 198.033C709.216 197.926 709.067 197.801 708.93 197.665C708.377 197.112 708.056 196.344 708.056 195.565C708.056 194.781 708.377 194.013 708.93 193.46C709.067 193.324 709.216 193.199 709.382 193.092C709.543 192.985 709.715 192.89 709.894 192.818C710.072 192.741 710.262 192.687 710.453 192.646C711.416 192.455 712.445 192.771 713.135 193.46C713.688 194.013 714.003 194.781 714.003 195.565C714.003 196.344 713.688 197.112 713.135 197.665C712.581 198.218 711.814 198.539 711.029 198.539Z" fill="#333333"/>
<path id="Vector_47" d="M699.535 200.121C699.339 200.121 699.148 200.103 698.952 200.067C698.762 200.025 698.577 199.972 698.399 199.895C698.221 199.823 698.048 199.728 697.888 199.621C697.721 199.514 697.572 199.389 697.436 199.252C696.877 198.699 696.562 197.932 696.562 197.147C696.562 196.957 696.579 196.761 696.621 196.57C696.657 196.38 696.716 196.19 696.787 196.011C696.865 195.833 696.954 195.661 697.061 195.5C697.174 195.334 697.293 195.185 697.436 195.048C697.572 194.911 697.721 194.786 697.888 194.679C698.048 194.572 698.221 194.477 698.399 194.406C698.577 194.329 698.762 194.275 698.952 194.233C699.921 194.037 700.944 194.358 701.64 195.048C701.777 195.185 701.902 195.334 702.009 195.5C702.116 195.661 702.205 195.833 702.282 196.011C702.353 196.19 702.413 196.38 702.449 196.57C702.49 196.761 702.508 196.957 702.508 197.147C702.508 197.932 702.193 198.699 701.64 199.252C701.087 199.805 700.32 200.121 699.535 200.121Z" fill="#333333"/>
</g>
<g id="blackhole" clip-path="url(#clip0_1_231)">
<g id="Group">
<path id="Vector_48" d="M191.03 797.321C195.659 797.321 199.411 793.569 199.411 788.94C199.411 784.31 195.659 780.558 191.03 780.558C186.4 780.558 182.648 784.31 182.648 788.94C182.648 793.569 186.4 797.321 191.03 797.321Z" fill="#20505B"/>
<path id="Vector_49" d="M59.9136 706.28L158.152 739.225C149.056 766.352 119.692 780.967 92.5588 771.868C65.4313 762.772 50.8169 733.407 59.9136 706.28Z" fill="#20505B"/>
<path id="Vector_50" d="M109.535 759.889C129.806 759.889 146.239 743.456 146.239 723.185C146.239 702.914 129.806 686.481 109.535 686.481C89.2641 686.481 72.8312 702.914 72.8312 723.185C72.8312 743.456 89.2641 759.889 109.535 759.889Z" fill="#154047"/>
<path id="Vector_51" d="M109.535 743.282C120.634 743.282 129.632 734.284 129.632 723.185C129.632 712.085 120.634 703.088 109.535 703.088C98.4357 703.088 89.4379 712.085 89.4379 723.185C89.4379 734.284 98.4357 743.282 109.535 743.282Z" fill="#092A2D"/>
<path id="Vector_52" d="M160.714 719.263L69.9044 688.806C83.2497 673.436 105.009 666.754 125.503 673.629C146.003 680.506 159.34 698.952 160.714 719.263Z" fill="#20505B"/>
<path id="Vector_53" d="M158.153 739.225L177.615 745.749C164.911 783.623 123.91 804.029 86.0344 791.331C48.159 778.632 27.7576 737.633 40.4506 699.756L59.9132 706.28C50.8165 733.408 65.4314 762.772 92.5589 771.868C119.691 780.967 149.056 766.352 158.153 739.225Z" fill="#FCBC1D"/>
<path id="Vector_54" d="M215.801 752.197C217.42 752.982 217.799 754.556 217.362 755.865C216.881 757.305 215.407 758.426 213.523 757.791L177.615 745.75L158.153 739.225L59.9138 706.281L40.4513 699.756L40.4532 699.751L4.54504 687.709C0.955653 686.51 2.3845 681.134 6.09716 681.872C14.796 683.598 23.6186 683.087 31.8397 680.572C40.0696 678.066 47.6961 673.562 53.9913 667.318C74.2886 647.194 104.921 638.991 133.866 648.701C162.813 658.405 182.309 683.418 186.368 711.713C188.883 729.264 199.837 744.47 215.801 752.197ZM69.9045 688.806L160.714 719.263C159.34 698.953 146.003 680.506 125.504 673.629C105.009 666.754 83.2493 673.436 69.9045 688.806Z" fill="#EAC16E"/>
<path id="Vector_55" d="M109.029 805.37C100.284 805.37 91.4554 803.978 82.8591 801.107L82.7596 801.074C73.0835 797.83 64.2136 792.903 56.4037 786.434C55.3555 785.565 55.209 784.011 56.0778 782.963C56.946 781.915 58.5001 781.768 59.5488 782.637C66.8898 788.718 75.2287 793.349 84.3339 796.401L84.4142 796.429C113.956 806.294 146.437 797.596 167.17 774.271C168.075 773.254 169.632 773.162 170.651 774.066C171.668 774.971 171.76 776.529 170.855 777.547C154.843 795.561 132.237 805.37 109.029 805.37ZM48.9877 778.276C48.3039 778.276 47.624 777.994 47.1368 777.44C31.3411 759.503 24.0371 735.698 27.0979 712.131C27.2729 710.781 28.512 709.83 29.8604 710.004C31.2104 710.179 32.163 711.416 31.9875 712.766C29.1095 734.926 35.9797 757.311 50.8367 774.183C51.7365 775.204 51.6379 776.762 50.6158 777.662C50.1479 778.074 49.5666 778.276 48.9877 778.276ZM175.911 769.398C175.444 769.398 174.972 769.266 174.554 768.989C173.418 768.238 173.106 766.709 173.857 765.573C175.53 763.041 177.07 760.381 178.434 757.667C179.045 756.451 180.527 755.96 181.743 756.571C182.96 757.182 183.45 758.664 182.839 759.88C181.389 762.768 179.75 765.598 177.97 768.292C177.495 769.009 176.711 769.398 175.911 769.398ZM209.865 741.581C209.305 741.581 208.743 741.392 208.28 741.003C199.253 733.417 193.351 722.745 191.661 710.952C191.468 709.604 192.404 708.355 193.752 708.162C195.102 707.968 196.348 708.906 196.541 710.253C198.059 720.844 203.354 730.424 211.452 737.228C212.494 738.103 212.629 739.659 211.753 740.701C211.266 741.282 210.568 741.581 209.865 741.581ZM191.354 700.599C190.293 700.599 189.313 699.908 188.993 698.84C185.808 688.205 180.625 678.451 173.589 669.849C168.353 663.447 162.207 657.878 155.323 653.296C154.189 652.542 153.882 651.011 154.637 649.878C155.39 648.745 156.919 648.437 158.055 649.191C165.348 654.045 171.858 659.945 177.405 666.727C184.855 675.834 190.343 686.163 193.717 697.425C194.107 698.729 193.366 700.103 192.062 700.494C191.826 700.565 191.588 700.599 191.354 700.599ZM29.5523 675.566C28.4957 675.566 27.5185 674.881 27.195 673.818C26.7986 672.516 27.5328 671.138 28.8354 670.742C32.1743 669.725 35.4028 668.291 38.4301 666.479C39.5991 665.78 41.1123 666.161 41.8114 667.329C42.5106 668.497 42.1299 670.011 40.9619 670.71C37.5904 672.728 33.9937 674.325 30.2716 675.458C30.032 675.531 29.7899 675.566 29.5523 675.566ZM48.4888 664.236C47.8542 664.236 47.2202 663.992 46.738 663.507C45.7795 662.54 45.7859 660.979 46.7528 660.02C58.2097 648.662 72.5633 640.644 88.2615 636.834C104.37 632.924 121.231 633.645 137.022 638.919L137.135 638.957C139.972 639.908 142.791 641.014 145.511 642.245C146.752 642.806 147.302 644.266 146.741 645.507C146.181 646.747 144.721 647.299 143.479 646.737C140.91 645.576 138.248 644.53 135.566 643.632L135.465 643.598C120.55 638.616 104.631 637.935 89.4241 641.626C74.5986 645.224 61.0433 652.796 50.2243 663.523C49.7436 663.998 49.1159 664.236 48.4888 664.236Z" fill="#333333"/>
<path id="Vector_56" d="M108.97 797.554C101.103 797.554 93.1097 796.303 85.2505 793.668C46.9342 780.822 25.8599 739.763 37.3696 701.316L3.76097 690.046C0.932354 689.101 -0.566511 686.32 0.199192 683.433C0.965882 680.545 3.64905 678.872 6.57775 679.454C14.7057 681.067 23.1925 680.638 31.1177 678.214C39.0356 675.803 46.3436 671.43 52.2547 665.567C62.7009 655.211 75.7884 647.9 90.1035 644.426C104.82 640.854 120.224 641.524 134.649 646.364C149.076 651.2 161.77 659.952 171.357 671.674C180.684 683.077 186.718 696.801 188.808 711.362C191.222 728.204 201.714 742.64 216.875 749.978C219.435 751.219 220.597 753.961 219.7 756.645C219.226 758.065 218.213 759.248 216.92 759.891C215.648 760.524 214.162 760.608 212.735 760.126L197.113 754.888C195.822 754.455 195.127 753.058 195.56 751.766C195.993 750.475 197.391 749.781 198.681 750.213L214.306 755.453C214.585 755.547 214.69 755.493 214.724 755.476C214.847 755.415 214.964 755.261 215.023 755.084C215.174 754.632 214.903 754.501 214.724 754.415C198.087 746.362 186.573 730.529 183.927 712.062C181.965 698.39 176.299 685.504 167.541 674.796C158.542 663.795 146.627 655.579 133.082 651.038C119.538 646.495 105.078 645.865 91.2666 649.217C77.8242 652.48 65.5345 659.344 55.7263 669.068C49.2481 675.494 41.2361 680.287 32.5569 682.93C23.8586 685.59 14.5425 686.062 5.61631 684.291C5.42156 684.252 5.0996 684.188 4.9645 684.698C4.8299 685.205 5.14003 685.309 5.32541 685.371L41.2356 697.413C42.5007 697.837 43.1984 699.191 42.8099 700.468C42.8035 700.49 42.7946 700.517 42.7872 700.539C30.5458 737.069 50.2973 776.75 86.8169 788.994C123.343 801.241 163.025 781.489 175.277 744.965C175.71 743.674 177.109 742.98 178.398 743.412L184.393 745.423C185.684 745.856 186.379 747.253 185.946 748.544C185.513 749.836 184.116 750.53 182.825 750.098L179.129 748.858C168.008 778.751 139.459 797.553 108.97 797.554Z" fill="#333333"/>
<path id="Vector_57" d="M109.086 777.05C103.277 777.05 97.4446 776.107 91.775 774.205C78.0308 769.596 66.9042 759.911 60.4453 746.934C53.9864 733.957 52.9672 719.241 57.5762 705.496C58.0091 704.205 59.4069 703.51 60.6977 703.942C61.9885 704.375 62.6842 705.773 62.2513 707.064C53.6018 732.859 67.5496 760.881 93.3434 769.531C105.841 773.722 119.222 772.796 131.021 766.924C142.82 761.052 151.625 750.936 155.816 738.441C156.248 737.15 157.646 736.455 158.937 736.887C160.227 737.32 160.923 738.717 160.49 740.009C155.881 753.753 146.196 764.879 133.218 771.338C125.592 775.133 117.363 777.05 109.086 777.05Z" fill="#333333"/>
<path id="Vector_58" d="M160.714 721.728C160.45 721.728 160.186 721.686 159.93 721.6L69.1205 691.143C68.3405 690.882 67.7424 690.248 67.526 689.454C67.31 688.661 67.5038 687.811 68.0432 687.19C82.5181 670.518 105.381 664.278 126.287 671.291C139.584 675.752 150.502 685.04 157.031 697.445C157.665 698.65 157.203 700.141 155.998 700.775C154.793 701.409 153.302 700.946 152.667 699.741C146.732 688.464 136.807 680.021 124.719 675.966C106.899 669.987 87.521 674.6 74.3241 687.688L157.858 715.704C157.448 712.873 156.791 710.075 155.894 707.348C155.469 706.054 156.172 704.661 157.466 704.235C158.759 703.809 160.152 704.513 160.578 705.807C161.995 710.115 162.869 714.586 163.173 719.095C163.229 719.916 162.872 720.711 162.22 721.213C161.782 721.552 161.251 721.728 160.714 721.728Z" fill="#333333"/>
<path id="Vector_59" d="M177.615 748.215C177.356 748.215 177.091 748.173 176.832 748.086L132.641 733.269C131.35 732.836 130.655 731.439 131.088 730.148C131.521 728.857 132.919 728.162 134.209 728.594L178.398 743.411C179.689 743.844 180.385 745.241 179.952 746.532C179.607 747.564 178.646 748.215 177.615 748.215Z" fill="#333333"/>
<path id="Vector_60" d="M122.069 729.589C121.81 729.589 121.545 729.548 121.285 729.461L31.3426 699.301C30.0518 698.868 29.3561 697.47 29.7895 696.18C30.2224 694.889 31.6206 694.193 32.9105 694.626L122.853 724.787C124.144 725.22 124.839 726.617 124.406 727.908C124.06 728.939 123.1 729.589 122.069 729.589Z" fill="#333333"/>
<path id="Vector_61" d="M25.8586 640.886C24.4972 640.886 23.3933 639.782 23.3933 638.42V627.853C23.3933 626.492 24.4972 625.388 25.8586 625.388C27.2199 625.388 28.3238 626.492 28.3238 627.853V638.421C28.3238 639.782 27.2199 640.886 25.8586 640.886Z" fill="#FCBC1D"/>
<path id="Vector_62" d="M31.1424 635.602H20.5744C19.2131 635.602 18.1092 634.498 18.1092 633.136C18.1092 631.775 19.2131 630.671 20.5744 630.671H31.1419C32.5032 630.671 33.6072 631.775 33.6072 633.136C33.6072 634.498 32.5037 635.602 31.1424 635.602Z" fill="#FCBC1D"/>
<path id="Vector_63" d="M158.488 816.612C157.127 816.612 156.023 815.508 156.023 814.147V803.58C156.023 802.218 157.127 801.114 158.488 801.114C159.85 801.114 160.954 802.218 160.954 803.58V814.147C160.954 815.509 159.85 816.612 158.488 816.612Z" fill="#FCBC1D"/>
<path id="Vector_64" d="M163.772 811.329H153.204C151.843 811.329 150.739 810.225 150.739 808.864C150.739 807.502 151.843 806.398 153.204 806.398H163.772C165.134 806.398 166.238 807.502 166.238 808.864C166.238 810.225 165.134 811.329 163.772 811.329Z" fill="#FCBC1D"/>
<path id="Vector_65" d="M186.567 741.161C186.306 741.161 186.041 741.119 185.784 741.033L165.746 734.313C164.455 733.88 163.76 732.483 164.193 731.192C164.626 729.902 166.024 729.206 167.314 729.639L181.144 734.277C178.69 729.521 176.828 724.478 175.588 719.219C175.276 717.893 176.098 716.566 177.423 716.254C178.751 715.941 180.076 716.763 180.388 718.088C182.01 724.972 184.783 731.452 188.632 737.349C189.206 738.228 189.16 739.373 188.518 740.204C188.042 740.819 187.316 741.161 186.567 741.161Z" fill="white"/>
<path id="Vector_66" d="M176.253 711.608C175.104 711.608 174.075 710.8 173.839 709.63C171.538 698.236 166.294 687.645 158.674 679.005C151.03 670.337 141.133 663.792 130.052 660.077L129.976 660.051C113.942 654.696 96.7287 655.602 81.5034 662.601C80.2663 663.169 78.8025 662.627 78.234 661.39C77.6655 660.153 78.2074 658.689 79.4444 658.121C95.8121 650.597 114.311 649.622 131.535 655.374L131.614 655.4C143.521 659.393 154.155 666.428 162.372 675.744C170.564 685.032 176.2 696.412 178.673 708.655C178.942 709.989 178.079 711.289 176.744 711.559C176.579 711.592 176.414 711.608 176.253 711.608Z" fill="white"/>
<path id="Vector_67" d="M47.0421 686.862C46.1793 686.862 45.3416 686.409 44.8895 685.602C44.2234 684.414 44.6464 682.912 45.8342 682.246C50.6251 679.56 55.0433 676.226 58.9665 672.337C62.478 668.856 66.345 665.736 70.46 663.066C71.6028 662.326 73.1293 662.65 73.8699 663.793C74.6109 664.935 74.286 666.461 73.1436 667.203C69.3116 669.689 65.7094 672.595 62.4376 675.839C58.1988 680.041 53.4242 683.643 48.2452 686.547C47.8645 686.761 47.4504 686.862 47.0421 686.862Z" fill="white"/>
<path id="Vector_68" d="M60.0596 698.737C59.7998 698.737 59.5355 698.696 59.2756 698.609L36.7739 691.063C35.4831 690.63 34.7874 689.233 35.2203 687.942C35.6532 686.651 37.05 685.956 38.3418 686.388L60.843 693.934C62.1338 694.367 62.8295 695.764 62.3966 697.055C62.0515 698.086 61.0901 698.737 60.0596 698.737Z" fill="white"/>
<path id="Vector_69" d="M74.5231 703.588C74.2633 703.588 73.999 703.546 73.7392 703.459L67.3108 701.303C66.02 700.87 65.3243 699.473 65.7572 698.182C66.1901 696.891 67.5874 696.195 68.8787 696.628L75.3071 698.784C76.5979 699.217 77.2936 700.614 76.8607 701.905C76.5146 702.937 75.5536 703.588 74.5231 703.588Z" fill="white"/>
<path id="Vector_70" d="M153.271 729.996C153.012 729.996 152.747 729.954 152.487 729.867L83.3808 706.693C82.09 706.26 81.3944 704.863 81.8273 703.571C82.2601 702.28 83.6574 701.585 84.9487 702.018L154.055 725.192C155.346 725.625 156.041 727.022 155.608 728.313C155.262 729.344 154.302 729.996 153.271 729.996Z" fill="white"/>
<path id="Vector_71" d="M63.1914 765.958C62.51 765.958 61.8321 765.678 61.3449 765.127C49.1878 751.402 43.4793 733.15 45.6837 715.052C45.8484 713.7 47.0786 712.74 48.429 712.903C49.7805 713.067 50.7429 714.297 50.5782 715.648C48.5444 732.346 53.8141 749.189 65.0354 761.858C65.9382 762.878 65.844 764.436 64.8249 765.338C64.356 765.754 63.7717 765.958 63.1914 765.958Z" fill="white"/>
<path id="Vector_72" d="M75.1691 776.374C74.7017 776.374 74.2288 776.242 73.8102 775.964C72.6545 775.199 71.5107 774.386 70.4107 773.548C69.3274 772.723 69.1179 771.177 69.9433 770.093C70.7681 769.01 72.3153 768.801 73.398 769.626C74.4122 770.398 75.4669 771.147 76.5328 771.854C77.6678 772.605 77.9789 774.135 77.227 775.27C76.7527 775.986 75.9683 776.374 75.1691 776.374Z" fill="white"/>
<path id="Vector_73" d="M109.032 786.566C102.27 786.566 95.4527 785.487 88.8237 783.273L88.7546 783.25C86.9323 782.639 85.1283 781.943 83.3834 781.179C82.1365 780.633 81.568 779.179 82.1143 777.932C82.6611 776.685 84.1151 776.117 85.3615 776.663C86.9723 777.369 88.6383 778.011 90.3132 778.573L90.3837 778.596C111.104 785.515 133.839 780.419 149.717 765.293C150.704 764.354 152.263 764.392 153.202 765.378C154.141 766.364 154.103 767.924 153.118 768.863C140.994 780.413 125.175 786.566 109.032 786.566Z" fill="white"/>
<path id="Vector_74" d="M158.59 761.373C158.086 761.373 157.576 761.218 157.137 760.898C156.038 760.094 155.798 758.552 156.601 757.453C157.991 755.551 159.278 753.546 160.426 751.492C161.09 750.303 162.59 749.878 163.781 750.543C164.969 751.207 165.394 752.709 164.73 753.897C163.485 756.125 162.09 758.301 160.583 760.362C160.1 761.022 159.35 761.373 158.59 761.373Z" fill="white"/>
<path id="Vector_75" d="M190.631 752.609C190.468 752.609 190.31 752.594 190.147 752.564C189.99 752.53 189.837 752.481 189.689 752.422C189.54 752.357 189.398 752.283 189.26 752.195C189.126 752.106 189.003 752.002 188.885 751.889C188.426 751.43 188.165 750.794 188.165 750.144C188.165 749.986 188.18 749.823 188.215 749.665C188.244 749.508 188.293 749.35 188.353 749.202C188.417 749.054 188.49 748.911 188.579 748.778C188.668 748.64 188.772 748.517 188.885 748.403C189.003 748.29 189.126 748.186 189.26 748.097C189.398 748.004 189.54 747.93 189.689 747.871C189.837 747.807 189.989 747.757 190.147 747.728C190.468 747.664 190.793 747.664 191.114 747.728C191.271 747.757 191.424 747.807 191.572 747.871C191.721 747.93 191.864 748.004 192.001 748.097C192.135 748.186 192.263 748.29 192.376 748.403C192.489 748.517 192.593 748.64 192.682 748.778C192.771 748.911 192.844 749.054 192.908 749.202C192.968 749.35 193.017 749.508 193.046 749.665C193.081 749.823 193.096 749.986 193.096 750.144C193.096 750.794 192.835 751.43 192.376 751.889C191.912 752.348 191.276 752.609 190.631 752.609Z" fill="#333333"/>
<path id="Vector_76" d="M190.444 742.457C190.185 742.457 189.922 742.416 189.663 742.329L185.786 741.034C184.495 740.603 183.798 739.206 184.229 737.915C184.661 736.623 186.059 735.928 187.348 736.357L191.225 737.652C192.516 738.083 193.213 739.48 192.782 740.771C192.437 741.804 191.476 742.457 190.444 742.457Z" fill="white"/>
<path id="Vector_77" d="M36.5956 690.901C36.3367 690.901 36.0734 690.86 35.8146 690.773L31.9382 689.478C30.6469 689.047 29.9498 687.65 30.3807 686.359C30.8126 685.068 32.2094 684.371 33.5002 684.801L37.3765 686.096C38.6678 686.528 39.365 687.924 38.9341 689.216C38.5885 690.248 37.627 690.901 36.5956 690.901Z" fill="white"/>
<path id="Vector_78" d="M191.03 799.787C185.048 799.787 180.183 794.921 180.183 788.94C180.183 782.958 185.048 778.093 191.03 778.093C197.011 778.093 201.877 782.958 201.877 788.94C201.877 794.921 197.011 799.787 191.03 799.787ZM191.03 783.023C187.767 783.023 185.113 785.677 185.113 788.94C185.113 792.202 187.767 794.856 191.03 794.856C194.292 794.856 196.946 792.202 196.946 788.94C196.946 785.677 194.292 783.023 191.03 783.023Z" fill="#333333"/>
</g>
</g>
<g id="earth">
<path id="Vector_79" d="M477.885 1023.92C464.459 1061.76 564.71 1035.24 564.624 1062.53C580.405 1044.28 589.949 1020.49 589.949 994.466C589.949 963.301 576.256 935.328 554.555 916.245H554.549C554.549 916.245 487.649 918.351 487.649 947.642C487.649 976.934 576.744 953.745 569.421 983.036C562.098 1012.33 491.31 986.088 477.885 1023.92Z" fill="#20CE55"/>
<path id="Vector_80" d="M433.947 1047.72C448.593 992.8 391.23 997.682 392.451 977.544C393.671 957.406 435.168 978.155 439.439 953.745C443.711 929.335 410.911 922.147 410.911 922.147L410.905 922.141C392.817 940.869 381.686 966.371 381.686 994.466C381.686 1026.15 395.838 1054.53 418.166 1073.63C425.44 1066.88 431.097 1058.4 433.947 1047.72Z" fill="#20CE55"/>
<path id="Vector_81" d="M446.439 898.036C432.946 903.552 420.87 911.821 410.905 922.14L410.911 922.147C410.911 922.147 443.711 929.335 439.439 953.745C435.168 978.154 393.671 957.406 392.451 977.544C391.23 997.682 448.593 992.8 433.947 1047.72C431.097 1058.4 425.44 1066.88 418.166 1073.63C427.784 1081.86 438.927 1088.37 451.107 1092.67V1092.67C487.801 1066.82 522.335 1092.01 522.335 1092.01V1092.01C538.817 1085.84 553.323 1075.61 564.624 1062.53C564.71 1035.24 464.459 1061.76 477.885 1023.92C491.31 986.088 562.098 1012.33 569.421 983.036C576.744 953.745 487.649 976.934 487.649 947.642C487.649 918.351 554.549 916.245 554.549 916.245C546.055 908.77 536.327 902.655 525.715 898.256V898.262C525.715 898.262 492.506 921.677 446.445 898.048L446.439 898.036Z" fill="#1AA5E2"/>
<path id="Vector_82" d="M564.625 1065.58C564.622 1065.58 564.618 1065.58 564.615 1065.58C562.93 1065.58 561.568 1064.21 561.574 1062.52C561.604 1052.94 541.553 1051.75 522.162 1050.6C519.651 1050.45 517.133 1050.3 514.639 1050.13C512.958 1050.02 511.687 1048.56 511.801 1046.88C511.914 1045.2 513.363 1043.93 515.05 1044.04C517.527 1044.21 520.029 1044.36 522.524 1044.51C533.626 1045.17 544.113 1045.79 552.294 1047.89C562.523 1050.52 567.698 1055.45 567.676 1062.54C567.67 1064.22 566.306 1065.58 564.625 1065.58Z" fill="#333333"/>
<path id="Vector_83" d="M505.707 1049.39C505.604 1049.39 505.5 1049.38 505.395 1049.37C503.483 1049.18 501.745 1048.97 500.081 1048.74C498.412 1048.51 497.246 1046.97 497.478 1045.3C497.709 1043.63 499.247 1042.47 500.919 1042.7C502.508 1042.92 504.175 1043.12 506.013 1043.3C507.69 1043.47 508.911 1044.97 508.74 1046.65C508.579 1048.22 507.254 1049.39 505.707 1049.39Z" fill="#333333"/>
<path id="Vector_84" d="M488.344 1046.11C488.018 1046.11 487.688 1046.06 487.362 1045.95C481.044 1043.8 476.994 1040.74 474.981 1036.59C473.132 1032.77 473.141 1028.17 475.009 1022.9C482.791 1000.97 507.559 998.812 529.411 996.907C533.26 996.571 536.896 996.254 540.423 995.839C542.096 995.643 543.613 996.839 543.81 998.513C544.007 1000.19 542.81 1001.7 541.136 1001.9C537.517 1002.33 533.837 1002.65 529.941 1002.99C508.942 1004.82 487.229 1006.71 480.76 1024.94C479.44 1028.66 479.346 1031.6 480.472 1033.93C481.736 1036.53 484.632 1038.58 489.324 1040.17C490.92 1040.71 491.774 1042.45 491.232 1044.04C490.801 1045.31 489.615 1046.11 488.344 1046.11Z" fill="#333333"/>
<path id="Vector_85" d="M559.407 997.497C558.263 997.497 557.165 996.85 556.645 995.746C555.926 994.222 556.579 992.404 558.103 991.685C562.752 989.493 565.407 986.51 566.461 982.296C567.283 979.006 566.439 977.329 565.731 976.354C561.53 970.558 545.193 969.392 530.78 968.363C520.061 967.597 508.978 966.806 500.484 964.306C489.942 961.204 484.597 955.598 484.597 947.643C484.597 915.761 551.6 913.285 554.453 913.196L554.549 913.194C556.234 913.194 557.603 914.561 557.603 916.246C557.603 917.909 556.275 919.261 554.62 919.296C553.88 919.322 537.682 919.941 521.757 923.94C507.589 927.498 490.698 934.499 490.698 947.643C490.698 959.382 511.295 960.853 531.214 962.275C548.487 963.509 564.801 964.674 570.672 972.772C572.872 975.808 573.447 979.51 572.38 983.776C570.89 989.736 566.962 994.253 560.705 997.204C560.286 997.403 559.843 997.497 559.407 997.497Z" fill="#333333"/>
<path id="Vector_86" d="M418.167 1076.68C417.348 1076.68 416.53 1076.35 415.929 1075.7C414.783 1074.46 414.857 1072.53 416.092 1071.39C423.482 1064.54 428.497 1056.31 430.999 1046.93C436.145 1027.64 432.854 1014.65 420.326 1004.84C418.999 1003.8 418.766 1001.88 419.805 1000.56C420.844 999.229 422.762 998.997 424.089 1000.03C438.611 1011.41 442.68 1026.81 436.895 1048.51C434.092 1059.01 428.488 1068.22 420.241 1075.86C419.654 1076.41 418.909 1076.68 418.167 1076.68Z" fill="#333333"/>
<path id="Vector_87" d="M411.94 998.847C411.433 998.847 410.92 998.72 410.447 998.455C409.19 997.748 407.943 997.068 406.724 996.403C397.529 991.386 388.843 986.647 389.405 977.36C389.745 971.753 392.682 967.954 398.134 966.067C402.385 964.596 407.61 964.427 413.142 964.248C426.508 963.817 434.746 962.859 436.433 953.219C437.964 944.472 434.207 937.147 425.267 931.448C418.145 926.908 410.332 925.144 410.254 925.126C408.61 924.763 407.57 923.135 407.932 921.491C408.294 919.846 409.921 918.805 411.564 919.166C411.92 919.244 420.38 921.137 428.408 926.213C439.568 933.271 444.422 942.973 442.445 954.271C439.781 969.495 425.12 969.967 413.339 970.348C401.221 970.739 395.871 971.555 395.497 977.729C395.184 982.885 400.67 986.149 409.647 991.047C410.888 991.723 412.157 992.416 413.437 993.135C414.906 993.96 415.428 995.82 414.603 997.289C414.042 998.286 413.007 998.847 411.94 998.847Z" fill="#333333"/>
<path id="Vector_88" opacity="0.25" d="M424.44 994.466C424.44 983.573 426.122 973.074 429.226 963.205C431.96 964.043 434.863 964.496 437.872 964.496C454.152 964.496 467.35 951.298 467.35 935.018C467.35 927.708 464.683 921.025 460.277 915.873C473.434 904.431 489.485 896.231 507.195 892.538C500.293 891.091 493.147 890.335 485.818 890.335C468.846 890.335 452.824 894.398 438.668 901.6C437.224 901.383 435.747 901.269 434.244 901.269C418.54 901.269 405.71 913.55 404.82 929.031C390.356 946.913 381.687 969.677 381.687 994.467C381.687 1051.98 428.309 1098.6 485.818 1098.6C493.147 1098.6 500.293 1097.84 507.195 1096.4C459.938 1086.54 424.44 1044.65 424.44 994.466Z" fill="black"/>
<path id="Vector_89" d="M451.11 1095.72C450.152 1095.72 449.208 1095.27 448.613 1094.42C447.643 1093.05 447.973 1091.14 449.35 1090.17C469.33 1076.1 488.704 1076.73 501.437 1079.73C503.077 1080.12 504.093 1081.76 503.705 1083.4C503.318 1085.04 501.672 1086.06 500.035 1085.67C483.285 1081.72 467.415 1084.91 452.864 1095.16C452.331 1095.54 451.718 1095.72 451.11 1095.72Z" fill="#333333"/>
<path id="Vector_90" d="M522.332 1095.06C521.709 1095.06 521.081 1094.87 520.539 1094.47C520.453 1094.41 515.887 1091.14 508.53 1088.31C506.957 1087.7 506.174 1085.93 506.781 1084.36C507.387 1082.79 509.152 1082.01 510.725 1082.61C518.92 1085.77 523.924 1089.39 524.133 1089.54C525.494 1090.53 525.793 1092.44 524.8 1093.8C524.202 1094.63 523.273 1095.06 522.332 1095.06Z" fill="#333333"/>
<path id="Vector_91" d="M487.797 911.632C475.883 911.632 461.24 909.067 445.052 900.763L447.838 895.334C466.199 904.753 484.572 907.698 502.445 904.087C515.809 901.387 523.882 895.821 523.962 895.765L527.473 900.756C527.113 901.01 518.484 907.01 503.969 910.005C499.424 910.942 493.977 911.632 487.797 911.632Z" fill="#333333"/>
<path id="Vector_92" d="M485.818 1101.65C473.559 1101.65 461.538 1099.6 450.091 1095.55C437.658 1091.16 426.25 1084.56 416.183 1075.94C392.321 1055.53 378.635 1025.83 378.635 994.466C378.635 966.54 389.316 940.102 408.709 920.021C419.145 909.215 431.451 900.868 445.284 895.212C458.168 889.951 471.805 887.283 485.818 887.283C500.049 887.283 513.866 890.027 526.886 895.438C537.723 899.931 547.709 906.161 556.565 913.955L552.534 918.536C544.181 911.187 534.765 905.311 524.547 901.074C512.271 895.973 499.241 893.386 485.818 893.386C472.6 893.386 459.739 895.901 447.592 900.861C434.548 906.194 422.943 914.067 413.099 924.26C394.809 943.197 384.737 968.131 384.737 994.466C384.737 1024.05 397.644 1052.06 420.149 1071.31C429.644 1079.43 440.401 1085.65 452.123 1089.79C462.917 1093.61 474.253 1095.55 485.817 1095.55C498.026 1095.55 509.952 1093.4 521.263 1089.16C537.045 1083.25 551.24 1073.35 562.315 1060.54C578.168 1042.2 586.898 1018.74 586.898 994.466C586.898 965.413 574.375 937.738 552.54 918.537L556.57 913.954C579.722 934.313 593 963.659 593 994.466C593 1020.2 583.742 1045.08 566.932 1064.53C555.19 1078.11 540.138 1088.61 523.403 1094.87C511.407 1099.37 498.76 1101.65 485.818 1101.65Z" fill="#333333"/>
<path id="Vector_93" d="M405.529 944.358C421.809 944.358 435.007 931.161 435.007 914.88C435.007 898.6 421.809 885.403 405.529 885.403C389.249 885.403 376.051 898.6 376.051 914.88C376.051 931.161 389.249 944.358 405.529 944.358Z" fill="#FCBC1D"/>
<path id="Vector_94" opacity="0.25" d="M376.051 914.879C376.051 931.16 389.245 944.359 405.526 944.359C408.052 944.359 410.512 944.042 412.849 943.444C400.113 940.185 390.697 928.633 390.697 914.879C390.697 901.124 400.113 889.578 412.849 886.319C410.512 885.721 408.052 885.404 405.526 885.404C389.245 885.404 376.051 898.597 376.051 914.879Z" fill="black"/>
<path id="Vector_95" opacity="0.47" d="M402.215 924.758C402.215 928.456 405.107 931.477 408.75 931.685C407.713 930.476 407.097 928.908 407.097 927.199C407.097 923.367 410.203 920.261 414.035 920.261C414.169 920.261 414.304 920.267 414.438 920.273C413.175 918.772 411.277 917.82 409.153 917.82C405.321 917.82 402.215 920.926 402.215 924.758Z" fill="black"/>
<path id="Vector_96" d="M409.152 934.749C403.644 934.749 399.163 930.268 399.163 924.76C399.163 919.253 403.644 914.772 409.152 914.772C414.66 914.772 419.14 919.253 419.14 924.76C419.14 926.445 417.774 927.811 416.089 927.811C414.404 927.811 413.038 926.445 413.038 924.76C413.038 922.618 411.294 920.874 409.152 920.874C407.009 920.874 405.266 922.618 405.266 924.76C405.266 926.903 407.009 928.646 409.152 928.646C410.837 928.646 412.203 930.013 412.203 931.698C412.203 933.382 410.837 934.749 409.152 934.749Z" fill="#333333"/>
<path id="Vector_97" d="M404.513 912.247C404.311 912.247 404.116 912.229 403.915 912.186C403.719 912.15 403.53 912.089 403.347 912.015C403.164 911.936 402.987 911.844 402.816 911.735C402.652 911.625 402.499 911.497 402.353 911.356C401.785 910.789 401.462 910.001 401.462 909.196C401.462 909.001 401.48 908.799 401.523 908.604C401.559 908.409 401.62 908.213 401.693 908.03C401.773 907.847 401.864 907.67 401.974 907.506C402.084 907.335 402.212 907.182 402.353 907.042C402.499 906.901 402.652 906.773 402.816 906.657C402.987 906.548 403.164 906.456 403.347 906.383C403.53 906.303 403.719 906.242 403.915 906.206C404.909 906.004 405.959 906.328 406.673 907.042C406.813 907.182 406.935 907.335 407.051 907.506C407.161 907.67 407.253 907.847 407.332 908.03C407.405 908.213 407.466 908.409 407.503 908.604C407.546 908.799 407.564 909.001 407.564 909.196C407.564 910.001 407.241 910.789 406.673 911.356C406.099 911.924 405.318 912.247 404.513 912.247Z" fill="#333333"/>
<path id="Vector_98" d="M402.822 899.432C402.023 899.432 401.236 899.109 400.668 898.541C400.528 898.401 400.4 898.242 400.29 898.077C400.18 897.913 400.082 897.736 400.009 897.553C399.93 897.363 399.875 897.174 399.832 896.979C399.796 896.784 399.771 896.582 399.771 896.381C399.771 896.186 399.796 895.984 399.832 895.789C399.875 895.594 399.93 895.399 400.009 895.215C400.082 895.032 400.18 894.855 400.29 894.691C400.4 894.52 400.528 894.367 400.668 894.227C400.809 894.086 400.961 893.958 401.132 893.849C401.297 893.739 401.474 893.641 401.657 893.568C401.84 893.488 402.035 893.434 402.23 893.391C402.621 893.311 403.03 893.311 403.42 893.391C403.616 893.434 403.805 893.488 403.994 893.568C404.177 893.641 404.354 893.739 404.519 893.849C404.684 893.958 404.842 894.086 404.983 894.227C405.123 894.367 405.251 894.52 405.361 894.691C405.471 894.855 405.568 895.032 405.642 895.215C405.721 895.399 405.776 895.594 405.819 895.789C405.855 895.984 405.874 896.186 405.874 896.381C405.874 897.187 405.55 897.974 404.983 898.541C404.415 899.109 403.628 899.432 402.822 899.432Z" fill="#333333"/>
<path id="Vector_99" d="M391.838 908.586C391.039 908.586 390.251 908.262 389.684 907.695C389.116 907.127 388.787 906.34 388.787 905.535C388.787 904.735 389.116 903.948 389.684 903.38C390.251 902.813 391.039 902.483 391.838 902.483C392.644 902.483 393.431 902.813 393.998 903.38C394.566 903.948 394.889 904.735 394.889 905.535C394.889 906.34 394.566 907.127 393.998 907.695C393.431 908.262 392.644 908.586 391.838 908.586Z" fill="#333333"/>
<path id="Vector_100" d="M534.476 919.555C533.923 919.555 533.363 919.404 532.86 919.089C529.257 916.833 525.465 914.821 521.587 913.11C520.046 912.429 519.348 910.628 520.028 909.086C520.708 907.545 522.509 906.847 524.051 907.527C528.196 909.357 532.249 911.506 536.099 913.918C537.527 914.813 537.959 916.695 537.065 918.124C536.486 919.047 535.492 919.555 534.476 919.555Z" fill="white"/>
<path id="Vector_101" d="M548.571 1064.64C547.757 1064.64 546.944 1064.31 546.343 1063.67C545.192 1062.44 545.256 1060.51 546.486 1059.36C564.412 1042.59 574.693 1018.93 574.693 994.466C574.693 969.86 564.826 946.955 546.908 929.974C545.685 928.814 545.633 926.883 546.792 925.66C547.952 924.436 549.883 924.385 551.106 925.544C570.251 943.689 580.796 968.166 580.796 994.466C580.796 1020.62 569.81 1045.89 550.655 1063.81C550.067 1064.36 549.318 1064.64 548.571 1064.64Z" fill="white"/>
<path id="Vector_102" d="M535.737 1074.68C534.738 1074.68 533.76 1074.19 533.175 1073.29C532.258 1071.88 532.659 1069.99 534.073 1069.07C535.627 1068.06 537.172 1066.99 538.665 1065.88C540.018 1064.88 541.929 1065.16 542.933 1066.51C543.938 1067.87 543.655 1069.78 542.301 1070.78C540.707 1071.97 539.056 1073.11 537.395 1074.19C536.883 1074.52 536.307 1074.68 535.737 1074.68Z" fill="white"/>
<path id="Vector_103" d="M420.332 932.734C419.551 932.734 418.771 932.437 418.174 931.84C416.983 930.649 416.983 928.717 418.174 927.525C422.375 923.324 424.207 917.318 423.075 911.458C422.755 909.804 423.838 908.203 425.492 907.883C427.144 907.562 428.747 908.646 429.067 910.301C430.584 918.153 428.125 926.205 422.489 931.84C421.894 932.437 421.113 932.734 420.332 932.734Z" fill="white"/>
<path id="Vector_104" d="M420.33 903.13C420.135 903.13 419.934 903.106 419.738 903.069C419.543 903.033 419.348 902.972 419.165 902.892C418.982 902.819 418.805 902.721 418.64 902.611C418.469 902.502 418.317 902.373 418.176 902.233C417.609 901.666 417.279 900.884 417.279 900.079C417.279 899.878 417.297 899.676 417.34 899.481C417.377 899.286 417.438 899.096 417.517 898.913C417.59 898.724 417.682 898.547 417.798 898.382C417.908 898.218 418.036 898.059 418.176 897.919C418.317 897.778 418.469 897.65 418.64 897.54C418.805 897.431 418.982 897.339 419.165 897.26C419.348 897.186 419.543 897.125 419.738 897.089C420.129 897.009 420.532 897.009 420.928 897.089C421.124 897.125 421.313 897.186 421.496 897.26C421.685 897.339 421.862 897.431 422.027 897.54C422.191 897.65 422.35 897.778 422.491 897.919C422.631 898.059 422.759 898.218 422.869 898.382C422.979 898.547 423.07 898.724 423.15 898.913C423.223 899.096 423.284 899.286 423.32 899.481C423.363 899.676 423.382 899.878 423.382 900.079C423.382 900.884 423.058 901.666 422.491 902.233C422.35 902.373 422.191 902.502 422.027 902.611C421.862 902.721 421.685 902.819 421.496 902.892C421.313 902.972 421.124 903.033 420.928 903.069C420.733 903.106 420.532 903.13 420.33 903.13Z" fill="white"/>
<path id="Vector_105" d="M405.529 947.409C387.593 947.409 373 932.817 373 914.88C373 896.944 387.593 882.351 405.529 882.351C423.465 882.351 438.058 896.944 438.058 914.88C438.058 932.817 423.466 947.409 405.529 947.409ZM405.529 888.454C390.958 888.454 379.102 900.308 379.102 914.88C379.102 929.452 390.958 941.307 405.529 941.307C420.1 941.307 431.955 929.452 431.955 914.88C431.955 900.308 420.101 888.454 405.529 888.454Z" fill="#333333"/>
</g>
<g id="ring-planet" clip-path="url(#clip1_1_231)">
<g id="Group_2">
<path id="Vector_106" d="M1037.21 851.26C1037.21 856.925 1036.61 862.451 1035.47 867.775C1032.19 883.119 1024.43 896.802 1013.62 907.389C1008.4 912.505 1002.47 916.903 995.981 920.408C989.377 923.986 982.207 926.644 974.636 928.214C969.464 929.282 964.108 929.844 958.623 929.844C957.306 929.844 955.998 929.812 954.7 929.747C939.885 929.02 926.152 924.189 914.611 916.365C911 913.924 907.602 911.184 904.456 908.19C900.998 904.902 897.843 901.301 895.029 897.432C885.639 884.519 880.081 868.631 880.039 851.454C880.039 851.09 880.044 850.731 880.044 850.367C880.049 850.067 880.058 849.768 880.062 849.473C880.067 849.211 880.072 848.948 880.081 848.686C880.647 831.057 887.026 814.893 897.355 802.049C899.345 799.576 901.477 797.227 903.747 795.016C913.75 785.253 926.35 778.133 940.414 774.799C944.365 773.86 948.432 773.224 952.586 772.907C954.58 772.755 956.592 772.676 958.623 772.676C972.19 772.676 984.951 776.112 996.087 782.172C999.472 784.005 1002.71 786.082 1005.77 788.38C1008.73 790.604 1011.53 793.036 1014.15 795.652C1015.43 796.932 1016.67 798.254 1017.85 799.622C1023.52 806.115 1028.15 813.548 1031.45 821.662C1035.16 830.799 1037.21 840.792 1037.21 851.26Z" fill="#F9911E"/>
<path id="Vector_107" d="M1032.77 825.167C1020.09 842.073 1004.33 860.245 986.282 878.284C968.078 896.493 949.735 912.386 932.696 925.124C932.594 925.202 932.488 925.276 932.387 925.354C927.027 923.457 921.938 920.997 917.19 918.041C917.291 917.99 917.388 917.935 917.489 917.88H917.494C917.512 917.871 917.535 917.852 917.554 917.843C934.754 908.43 956.528 891.552 978.039 870.04C999.338 848.741 1016.09 827.189 1025.56 810.071C1027.83 813.741 1029.8 817.619 1031.45 821.662C1031.92 822.818 1032.36 823.983 1032.77 825.167Z" fill="#F9A24B"/>
<path id="Vector_108" d="M995.459 793.398C995.041 793.398 994.619 793.285 994.239 793.047C991.521 791.344 988.659 789.826 985.732 788.534C984.569 788.02 984.042 786.661 984.555 785.498C985.068 784.335 986.428 783.808 987.592 784.321C990.72 785.702 993.779 787.325 996.683 789.144C997.761 789.819 998.087 791.24 997.412 792.318C996.975 793.016 996.226 793.398 995.459 793.398Z" fill="white"/>
<path id="Vector_109" d="M1006.1 902.885C1005.48 902.885 1004.87 902.64 1004.41 902.156C1003.55 901.227 1003.59 899.77 1004.52 898.901C1018.05 886.244 1025.81 868.396 1025.81 849.932C1025.81 831.361 1018.36 814.077 1004.84 801.261C1003.92 800.387 1003.88 798.929 1004.75 798.006C1005.63 797.083 1007.09 797.044 1008.01 797.919C1022.46 811.612 1030.41 830.084 1030.41 849.931C1030.41 869.665 1022.12 888.74 1007.67 902.263C1007.22 902.679 1006.66 902.885 1006.1 902.885Z" fill="white"/>
<path id="Vector_110" d="M996.411 910.466C995.657 910.466 994.918 910.096 994.477 909.417C993.785 908.351 994.088 906.924 995.155 906.232C996.328 905.471 997.494 904.661 998.62 903.825C999.642 903.067 1001.08 903.281 1001.84 904.302C1002.6 905.324 1002.39 906.765 1001.36 907.523C1000.16 908.416 998.916 909.281 997.663 910.095C997.275 910.346 996.84 910.466 996.411 910.466Z" fill="white"/>
<path id="Vector_111" opacity="0.25" d="M1014.15 795.652C1011.53 793.036 1008.73 790.604 1005.77 788.38C1002.71 786.082 999.472 784.005 996.087 782.172C996.239 782.449 996.423 782.702 996.649 782.928C1001.53 787.8 998.979 799.235 990.855 814.1C990.846 814.119 990.828 814.142 990.819 814.16C990.726 814.331 990.63 814.501 990.533 814.676C981.065 831.794 964.311 853.346 943.012 874.646C939.27 878.387 935.522 881.986 931.79 885.43C928.013 888.917 921.919 887.707 919.775 883.035C915.206 873.074 912.656 861.996 912.656 850.32C912.656 829.118 921.056 809.872 934.705 795.739C942.226 787.951 951.34 781.711 961.522 777.548C965.768 775.814 970.201 774.445 974.779 773.469C969.47 772.337 963.965 771.736 958.318 771.736C947.8 771.736 937.769 773.804 928.6 777.548C918.418 781.711 909.304 787.951 901.784 795.739C888.134 809.872 879.734 829.118 879.734 850.32C879.734 873.065 889.402 893.547 904.849 907.897C904.718 907.994 904.586 908.094 904.456 908.19C907.601 911.184 911 913.924 914.61 916.365C914.774 916.23 914.937 916.092 915.1 915.957C920.367 919.433 926.074 922.295 932.123 924.432C940.316 927.329 949.135 928.904 958.318 928.904C963.962 928.904 969.466 928.305 974.774 927.174C971.448 926.465 968.2 925.548 965.045 924.432C955.853 921.185 947.444 916.272 940.186 910.059C939.795 909.725 939.407 909.387 939.023 909.045C934.813 905.296 934.808 898.724 938.914 894.861C943.023 890.995 947.142 887.002 951.255 882.889C969.298 864.85 985.067 846.678 997.745 829.772C997.86 829.615 997.98 829.458 998.095 829.302C1005.94 818.807 1012.59 808.799 1017.85 799.621C1016.67 798.254 1015.43 796.932 1014.15 795.652Z" fill="black"/>
<path id="Vector_112" d="M1063.13 746.864C1052.83 736.566 1022.09 749.378 985.306 776.876L984.975 777.208C990.312 779.101 995.382 781.56 1000.11 784.512L1000.51 784.116C1015.37 775.987 1026.81 773.445 1031.68 778.322C1036.56 783.195 1034.01 794.629 1025.88 809.495C1025.87 809.514 1025.85 809.537 1025.85 809.555C1025.75 809.725 1025.66 809.896 1025.56 810.071C1016.09 827.189 999.338 848.741 978.039 870.04C956.528 891.551 934.754 908.43 917.554 917.843C917.535 917.852 917.512 917.87 917.494 917.88H917.489C917.388 917.935 917.291 917.99 917.19 918.041C913.556 920.017 910.13 921.661 906.957 922.932C897.281 926.823 889.964 927.325 886.321 923.678C881.481 918.842 883.958 907.55 891.935 892.846C888.974 888.107 886.5 883.027 884.594 877.68C857.289 914.301 844.602 944.871 854.867 955.136C862.843 963.117 883.083 957.227 908.9 941.385H908.905C916.324 936.835 924.204 931.461 932.387 925.354C932.488 925.276 932.594 925.202 932.696 925.124C949.735 912.386 968.078 896.493 986.282 878.284C1004.33 860.245 1020.09 842.073 1032.77 825.167C1032.89 825.01 1033.01 824.854 1033.12 824.697C1060.62 787.91 1073.44 757.166 1063.13 746.864Z" fill="#F7DB9C"/>
<path id="Vector_113" d="M958.998 932.008C949.683 932.008 940.549 930.44 931.852 927.347L933.395 923.008C941.596 925.924 950.21 927.402 958.998 927.402C1001.13 927.402 1035.4 893.128 1035.4 850.999C1035.4 842.214 1033.92 833.601 1031.01 825.4L1030.87 825.026V824.629L1033.18 824.626L1035.35 823.857C1038.44 832.555 1040.01 841.687 1040.01 850.999C1040.01 895.668 1003.67 932.008 958.998 932.008Z" fill="#333333"/>
<path id="Vector_114" d="M865.169 961.001C860.05 961.001 856.062 959.589 853.237 956.763C847.483 951.01 847.59 940.426 853.554 925.307C858.987 911.531 869.181 894.456 883.032 875.926L886.721 878.684C873.111 896.89 863.124 913.596 857.838 926.997C852.757 939.878 852.28 949.293 856.494 953.507C860.708 957.721 870.123 957.244 883.004 952.163C896.405 946.877 913.11 936.889 931.316 923.279C948.723 910.267 967.168 894.145 984.656 876.657C1002.14 859.17 1018.27 840.725 1031.28 823.318C1044.89 805.112 1054.88 788.405 1060.16 775.004C1065.24 762.123 1065.72 752.708 1061.51 748.494C1057.29 744.28 1047.88 744.757 1035 749.839C1021.6 755.124 1004.89 765.112 986.683 778.722L983.925 775.033C1002.46 761.182 1019.53 750.988 1033.31 745.555C1048.43 739.591 1059.01 739.485 1064.76 745.238C1070.52 750.991 1070.41 761.575 1064.45 776.694C1059.01 790.471 1048.82 807.546 1034.97 826.075C1021.82 843.657 1005.55 862.274 987.913 879.914C970.271 897.555 951.655 913.826 934.075 926.968C915.545 940.819 898.47 951.013 884.693 956.447C876.998 959.482 870.476 961 865.169 961.001ZM893.51 928.437C889.743 928.438 886.782 927.398 884.692 925.307C879.143 919.758 881.013 908.034 890.1 891.402L894.141 893.61C886.478 907.634 884.163 918.266 887.947 922.05C891.741 925.842 902.37 923.528 916.382 915.858L916.902 915.575C934.439 905.889 956.095 888.729 976.411 868.413C996.879 847.945 1014.15 826.111 1023.8 808.498L1023.85 808.404C1031.52 794.367 1033.84 783.735 1030.05 779.95C1026.26 776.157 1015.63 778.472 1001.61 786.137L999.404 782.096C1016.03 773.004 1027.75 771.135 1033.31 776.694C1038.86 782.239 1036.99 793.953 1027.92 810.57L1027.87 810.662C1018.02 828.65 1000.45 850.886 979.667 871.669C958.88 892.456 936.644 910.022 918.66 919.864L918.619 919.886C918.581 919.907 918.545 919.925 918.512 919.942L918.503 919.946C908.175 925.591 899.742 928.437 893.51 928.437Z" fill="#333333"/>
<path id="Vector_115" d="M865.197 950.388C863.064 950.388 861.435 949.982 860.726 949.273C860.573 949.12 857.042 945.33 863.407 929.193C866.86 920.439 872.438 910.163 879.816 898.91C873.972 912.984 874.179 923.261 880.458 929.54C882.693 931.775 886.776 934.44 893.528 934.44C898.427 934.44 904.288 933.024 911.032 930.217C891.461 943.04 874.958 950.388 865.199 950.388C865.198 950.388 865.198 950.388 865.197 950.388ZM1038.19 803.079C1044.03 789.011 1043.82 778.734 1037.54 772.457C1035.31 770.225 1031.22 767.559 1024.47 767.559C1019.58 767.559 1013.72 768.973 1006.98 771.775C1026.55 758.957 1043.04 751.612 1052.8 751.612C1054.93 751.612 1056.56 752.018 1057.27 752.727C1057.43 752.88 1060.96 756.67 1054.59 772.807C1051.14 781.558 1045.56 791.831 1038.19 803.079Z" fill="#DDBE7F"/>
<path id="Vector_116" d="M917.685 919.303L915.7 918.344C905.253 911.839 896.301 902.885 889.811 892.45C886.788 887.591 884.284 882.392 882.368 876.999C879.298 868.378 877.741 859.321 877.741 850.079C877.741 805.782 913.78 769.743 958.077 769.743C967.323 769.743 976.382 771.3 985.004 774.371C990.381 776.283 995.578 778.787 1000.45 781.812C1010.89 788.31 1019.85 797.266 1026.34 807.712L1023.63 812.287L1022.43 810.143C1016.31 800.293 1007.87 791.849 998.016 785.723C993.426 782.872 988.528 780.512 983.459 778.709C975.334 775.816 966.795 774.348 958.077 774.348C916.319 774.348 882.347 808.321 882.347 850.079C882.347 858.793 883.814 867.331 886.707 875.456C888.513 880.539 890.874 885.439 893.722 890.018C899.818 899.82 908.219 908.237 918.023 914.366L919.66 915.142L917.685 919.303Z" fill="#333333"/>
</g>
</g>
<g id="satellite">
<path id="Vector_117" d="M1176.63 383.759L1159.75 366.876L1138.53 388.093L1155.41 404.976L1176.63 383.759Z" fill="#1DEFFC"/>
<path id="Vector_118" d="M1142.87 349.995L1159.75 366.875L1138.53 388.093L1121.65 371.212L1124.4 368.465L1142.87 349.995Z" fill="#1DEFFC"/>
<path id="Vector_119" d="M1063.12 270.248L1080 287.129L1061.53 305.6L1058.79 308.347L1041.9 291.466L1063.12 270.248Z" fill="#1DEFFC"/>
<path id="Vector_120" d="M1063.12 270.249L1046.24 253.369L1025.02 274.586L1041.91 291.466L1063.12 270.249Z" fill="#1DEFFC"/>
<path id="Vector_121" d="M1091.03 319.591C1095.66 320.498 1100.08 322.749 1103.66 326.337C1107.25 329.925 1109.5 334.344 1110.41 338.972C1104.99 341.864 1098.11 341.03 1093.54 336.462C1088.97 331.894 1088.13 325.006 1091.03 319.591Z" fill="#1DEFFC"/>
<path id="Vector_122" d="M1155.41 404.976L1138.53 388.093L1117.31 409.313L1134.19 426.197L1155.41 404.976Z" fill="#1DEFFC"/>
<path id="Vector_123" d="M1121.65 371.212L1138.53 388.093L1117.31 409.313L1100.43 392.433L1114.52 378.337L1121.65 371.212Z" fill="#1DEFFC"/>
<path id="Vector_124" d="M1041.9 291.466L1058.79 308.346L1051.66 315.472L1037.56 329.567L1020.68 312.687L1041.9 291.466Z" fill="#1DEFFC"/>
<path id="Vector_125" d="M1041.9 291.466L1025.02 274.586L1003.8 295.806L1020.68 312.687L1041.9 291.466Z" fill="#1DEFFC"/>
<path id="Vector_126" d="M1103.66 361.15L1068.85 326.336C1074.87 320.308 1083.25 318.061 1091.03 319.59C1088.13 325.006 1088.97 331.893 1093.54 336.461C1098.11 341.029 1104.99 341.864 1110.41 338.971C1110.72 340.546 1110.87 342.142 1110.87 343.742C1110.87 350.042 1108.47 356.342 1103.66 361.15Z" fill="#23464F"/>
<path id="Vector_127" d="M1068.85 326.336L1103.66 361.15L1099.73 365.08L1089.86 374.952L1079.1 385.712L1070.18 394.627L1035.37 359.813L1044.28 350.899L1055.05 340.138L1064.92 330.266L1068.85 326.336Z" fill="#CBCBCB"/>
<path id="Vector_128" opacity="0.25" d="M1068.85 326.336L1103.66 361.15L1099.73 365.079L1089.86 374.952L1079.1 385.712C1079.1 385.712 1095.58 373.661 1070.18 394.626C1086.94 356.865 1068.85 326.336 1068.85 326.336Z" fill="black"/>
<path id="Vector_129" d="M1134.19 426.197L1117.31 409.313L1096.09 430.53L1112.98 447.414L1134.19 426.197Z" fill="#1DEFFC"/>
<path id="Vector_130" d="M1100.43 392.433L1117.31 409.313L1096.09 430.531L1079.21 413.651L1082.48 410.379L1100.43 392.433Z" fill="#1DEFFC"/>
<path id="Vector_131" d="M1020.68 312.687L1037.56 329.567L1019.62 347.513L1016.35 350.785L999.466 333.904L1020.68 312.687Z" fill="#1DEFFC"/>
<path id="Vector_132" d="M1020.68 312.687L1003.8 295.807L982.586 317.024L999.467 333.904L1020.68 312.687Z" fill="#1DEFFC"/>
<path id="Vector_133" d="M1035.37 359.813L1070.18 394.627L1063.12 401.689L1057.1 395.663L1034.34 372.903L1028.31 366.875L1035.37 359.813Z" fill="#23464F"/>
<path id="Vector_134" d="M1112.98 447.415L1096.09 430.531L1074.88 451.748L1091.76 468.632L1112.98 447.415Z" fill="#1DEFFC"/>
<path id="Vector_135" d="M1096.09 430.532L1079.21 413.651L1057.99 434.868L1074.87 451.748L1096.09 430.532Z" fill="#1DEFFC"/>
<path id="Vector_136" d="M1016.35 350.785L999.466 333.905L978.249 355.122L995.13 372.002L1016.35 350.785Z" fill="#1DEFFC"/>
<path id="Vector_137" d="M999.466 333.905L982.586 317.024L961.369 338.241L978.249 355.122L999.466 333.905Z" fill="#1DEFFC"/>
<path id="Vector_138" d="M1063.12 270.248L1080 287.129L1061.53 305.6L1058.79 308.347L1063.12 270.248Z" fill="#A3F7FC"/>
<path id="Vector_139" d="M1046.24 253.368L1063.12 270.248L1041.9 291.466L1046.24 253.368Z" fill="#A3F7FC"/>
<path id="Vector_140" d="M1041.9 291.466L1058.79 308.346L1051.66 315.472L1037.56 329.567L1041.9 291.466Z" fill="#A3F7FC"/>
<path id="Vector_141" d="M1025.02 274.586L1041.9 291.466L1020.68 312.687L1025.02 274.586Z" fill="#A3F7FC"/>
<path id="Vector_142" d="M1020.68 312.687L1037.56 329.567L1019.62 347.513L1016.35 350.785L1020.68 312.687Z" fill="#A3F7FC"/>
<path id="Vector_143" d="M999.466 333.904L1020.68 312.687L1003.8 295.806L999.466 333.904Z" fill="#A3F7FC"/>
<path id="Vector_144" d="M999.466 333.904L1016.35 350.785L995.129 372.002L999.466 333.904Z" fill="#A3F7FC"/>
<path id="Vector_145" d="M982.586 317.024L999.466 333.904L978.249 355.122L982.586 317.024Z" fill="#A3F7FC"/>
<path id="Vector_146" d="M1057.1 395.663L1056.39 396.374L1052.78 399.983L1048.11 395.313L1031.36 412.065L1036.03 416.734L1030.97 421.792L1030.77 421.598L1008.21 399.036L1013.27 393.977L1017.94 398.642L1034.69 381.891L1030.21 377.415L1030.02 377.221L1030.12 377.117L1033.63 373.612L1034.34 372.902L1057.1 395.663Z" fill="#1DEFFC"/>
<path id="Vector_147" d="M1052.78 399.982L1058.86 406.061L1042.1 422.815L1036.03 416.736L1031.36 412.067L1048.11 395.312L1052.78 399.982Z" fill="#23464F"/>
<path id="Vector_148" d="M1030.02 377.222L1034.69 381.89L1017.93 398.644L1013.26 393.976L1007.19 387.897L1023.94 371.143L1030.02 377.222Z" fill="#23464F"/>
<path id="Vector_149" d="M1063.12 404.057C1062.52 404.057 1061.91 403.826 1061.45 403.363L1055.42 397.338C1054.5 396.413 1054.5 394.914 1055.42 393.989C1056.35 393.064 1057.85 393.064 1058.77 393.989L1063.12 398.34L1101.99 359.476C1106.19 355.271 1108.51 349.683 1108.5 343.743C1108.5 342.297 1108.36 340.846 1108.08 339.43C1107.65 337.231 1106.9 335.122 1105.83 333.158C1105.21 332.008 1105.64 330.571 1106.79 329.948C1107.94 329.325 1109.38 329.753 1110 330.904C1111.29 333.291 1112.21 335.852 1112.73 338.519C1113.07 340.233 1113.24 341.992 1113.24 343.743C1113.24 350.948 1110.44 357.725 1105.34 362.825L1064.8 403.364C1064.33 403.825 1063.73 404.057 1063.12 404.057Z" fill="#333333"/>
<path id="Vector_150" d="M1103.66 328.705C1103.06 328.705 1102.45 328.473 1101.99 328.011C1101.17 327.191 1100.28 326.432 1099.36 325.754C1098.3 324.982 1098.07 323.501 1098.84 322.445C1099.61 321.389 1101.09 321.158 1102.15 321.93C1103.27 322.752 1104.35 323.671 1105.34 324.662C1106.26 325.587 1106.26 327.087 1105.34 328.011C1104.88 328.473 1104.27 328.705 1103.66 328.705Z" fill="#333333"/>
<path id="Vector_151" d="M1034.34 375.271C1033.73 375.271 1033.12 375.04 1032.66 374.578L1026.63 368.55C1025.71 367.625 1025.71 366.125 1026.63 365.201L1067.17 324.662C1073.54 318.29 1082.63 315.525 1091.48 317.267C1092.8 317.526 1094.12 317.888 1095.38 318.341C1096.61 318.783 1097.25 320.138 1096.81 321.369C1096.37 322.601 1095.01 323.242 1093.78 322.799C1092.74 322.426 1091.66 322.128 1090.57 321.914C1083.27 320.477 1075.78 322.758 1070.52 328.011L1031.66 366.875L1036.01 371.229C1036.94 372.154 1036.94 373.653 1036.01 374.578C1035.55 375.04 1034.94 375.271 1034.34 375.271Z" fill="#333333"/>
<path id="Vector_152" d="M1103.66 363.045C1103.18 363.045 1102.69 362.859 1102.32 362.49L1067.51 327.676C1066.77 326.937 1066.77 325.737 1067.51 324.997C1068.25 324.257 1069.45 324.257 1070.19 324.997L1105 359.811C1105.74 360.551 1105.74 361.75 1105 362.49C1104.63 362.859 1104.15 363.045 1103.66 363.045Z" fill="#333333"/>
<path id="Vector_153" d="M1044.29 353.267C1044.18 353.267 1044.07 353.26 1043.96 353.245L1019.3 349.859C1018 349.682 1017.09 348.487 1017.27 347.191C1017.45 345.896 1018.65 344.99 1019.94 345.167L1044.61 348.553C1045.9 348.73 1046.81 349.925 1046.63 351.22C1046.47 352.407 1045.45 353.267 1044.29 353.267Z" fill="#333333"/>
<path id="Vector_154" d="M1032.6 413.305L1036.03 416.734L1030.97 421.792L1030.77 421.598C1031.56 418.771 1032.15 416 1032.6 413.305Z" fill="#2234D3"/>
<path id="Vector_155" opacity="0.25" d="M1056.39 396.374L1052.78 399.983L1048.11 395.313L1033.02 410.407C1034.27 400.537 1033.48 391.728 1032.02 384.557C1031.49 381.948 1030.86 379.556 1030.21 377.415C1030.18 377.316 1030.15 377.216 1030.12 377.117L1033.63 373.612L1056.39 396.374Z" fill="black"/>
<path id="Vector_156" d="M1064.91 332.634C1063.75 332.634 1062.73 331.775 1062.57 330.588L1059.19 305.921C1059.01 304.626 1059.91 303.431 1061.21 303.253C1062.51 303.073 1063.7 303.982 1063.88 305.278L1067.26 329.944C1067.44 331.239 1066.54 332.434 1065.24 332.612C1065.13 332.627 1065.02 332.634 1064.91 332.634Z" fill="#333333"/>
<path id="Vector_157" d="M1055.04 342.506C1053.88 342.506 1052.86 341.647 1052.7 340.46L1049.31 315.793C1049.14 314.498 1050.04 313.303 1051.34 313.126C1052.64 312.946 1053.83 313.855 1054.01 315.15L1057.39 339.816C1057.57 341.112 1056.66 342.307 1055.37 342.484C1055.26 342.499 1055.15 342.506 1055.04 342.506Z" fill="#333333"/>
<path id="Vector_158" d="M1082.48 412.747C1081.32 412.747 1080.3 411.887 1080.14 410.701L1076.75 386.034C1076.58 384.739 1077.48 383.544 1078.78 383.366C1080.08 383.186 1081.27 384.095 1081.45 385.39L1084.83 410.057C1085.01 411.352 1084.1 412.547 1082.81 412.725C1082.7 412.74 1082.59 412.747 1082.48 412.747Z" fill="#333333"/>
<path id="Vector_159" d="M1124.4 370.834C1124.29 370.834 1124.19 370.826 1124.08 370.811L1099.41 367.426C1098.11 367.248 1097.21 366.053 1097.38 364.758C1097.56 363.462 1098.76 362.556 1100.05 362.734L1124.72 366.119C1126.01 366.297 1126.92 367.492 1126.74 368.787C1126.58 369.974 1125.57 370.834 1124.4 370.834Z" fill="#333333"/>
<path id="Vector_160" d="M1114.53 380.706C1114.42 380.706 1114.31 380.699 1114.2 380.684L1089.54 377.298C1088.24 377.121 1087.33 375.926 1087.51 374.63C1087.69 373.335 1088.89 372.428 1090.18 372.606L1114.85 375.992C1116.14 376.169 1117.05 377.364 1116.87 378.659C1116.71 379.846 1115.69 380.706 1114.53 380.706Z" fill="#333333"/>
<path id="Vector_161" d="M1159.75 366.875L1176.63 383.756L1158.16 402.226L1155.41 404.973L1159.75 366.875Z" fill="#A3F7FC"/>
<path id="Vector_162" d="M1142.87 349.995L1159.75 366.875L1138.53 388.093L1142.87 349.995Z" fill="#A3F7FC"/>
<path id="Vector_163" d="M1138.53 388.093L1155.41 404.973L1148.29 412.098L1134.19 426.194L1138.53 388.093Z" fill="#A3F7FC"/>
<path id="Vector_164" d="M1121.65 371.212L1138.53 388.093L1117.31 409.313L1121.65 371.212Z" fill="#A3F7FC"/>
<path id="Vector_165" d="M1117.31 409.313L1134.19 426.194L1116.25 444.14L1112.97 447.411L1117.31 409.313Z" fill="#A3F7FC"/>
<path id="Vector_166" d="M1096.09 430.531L1117.31 409.313L1100.43 392.433L1096.09 430.531Z" fill="#A3F7FC"/>
<path id="Vector_167" d="M1096.09 430.531L1112.97 447.411L1091.76 468.629L1096.09 430.531Z" fill="#A3F7FC"/>
<path id="Vector_168" d="M1079.21 413.651L1096.09 430.531L1074.88 451.749L1079.21 413.651Z" fill="#A3F7FC"/>
<path id="Vector_169" d="M995.129 374.37C994.523 374.37 993.917 374.139 993.455 373.677L976.574 356.797L959.694 339.916C959.249 339.472 959 338.87 959 338.241C959 337.613 959.249 337.011 959.694 336.566L1044.57 251.693C1045.49 250.769 1046.99 250.769 1047.92 251.693L1081.68 285.455C1082.6 286.38 1082.6 287.879 1081.68 288.804L996.804 373.677C996.342 374.139 995.735 374.37 995.129 374.37ZM979.923 353.447L995.129 368.653L1076.65 287.129L1046.24 256.717L964.717 338.241L979.923 353.447Z" fill="#333333"/>
<path id="Vector_170" d="M1056.75 278.991C1056.14 278.991 1055.53 278.76 1055.07 278.298C1054.15 277.373 1054.15 275.874 1055.07 274.949L1061.45 268.574C1062.37 267.65 1063.87 267.65 1064.8 268.574C1065.72 269.499 1065.72 270.999 1064.8 271.923L1058.42 278.298C1057.96 278.76 1057.35 278.991 1056.75 278.991Z" fill="#333333"/>
<path id="Vector_171" d="M978.249 357.49C977.643 357.49 977.037 357.259 976.575 356.797C975.65 355.872 975.65 354.372 976.575 353.448L1049.71 280.317C1050.63 279.392 1052.13 279.392 1053.05 280.317C1053.98 281.242 1053.98 282.741 1053.05 283.666L979.923 356.797C979.461 357.259 978.855 357.49 978.249 357.49Z" fill="#333333"/>
<path id="Vector_172" d="M1058.78 310.715C1058.18 310.715 1057.57 310.483 1057.11 310.021L1023.35 276.26C1022.42 275.335 1022.42 273.836 1023.35 272.911C1024.27 271.987 1025.77 271.987 1026.7 272.911L1060.46 306.672C1061.38 307.597 1061.38 309.097 1060.46 310.021C1060 310.483 1059.39 310.715 1058.78 310.715Z" fill="#333333"/>
<path id="Vector_173" d="M1037.56 331.935C1036.96 331.935 1036.35 331.704 1035.89 331.242L1028.86 324.209C1027.93 323.284 1027.93 321.784 1028.86 320.86C1029.78 319.935 1031.28 319.935 1032.2 320.86L1039.24 327.893C1040.16 328.818 1040.16 330.318 1039.24 331.242C1038.78 331.704 1038.17 331.935 1037.56 331.935Z" fill="#333333"/>
<path id="Vector_174" d="M1025.79 320.166C1025.19 320.166 1024.58 319.935 1024.12 319.473L1002.13 297.481C1001.2 296.556 1001.2 295.057 1002.13 294.132C1003.05 293.208 1004.55 293.208 1005.48 294.132L1027.47 316.124C1028.39 317.049 1028.39 318.548 1027.47 319.473C1027.01 319.935 1026.4 320.166 1025.79 320.166Z" fill="#333333"/>
<path id="Vector_175" d="M1016.35 353.153C1015.74 353.153 1015.13 352.922 1014.67 352.459L990.274 328.061C989.349 327.136 989.349 325.636 990.274 324.712C991.198 323.788 992.699 323.788 993.623 324.712L1018.02 349.11C1018.95 350.035 1018.95 351.535 1018.02 352.459C1017.56 352.922 1016.95 353.153 1016.35 353.153Z" fill="#333333"/>
<path id="Vector_176" d="M987.37 324.176C986.764 324.176 986.157 323.945 985.695 323.483L980.911 318.699C979.986 317.774 979.986 316.274 980.911 315.35C981.835 314.425 983.335 314.425 984.259 315.35L989.044 320.134C989.969 321.059 989.969 322.559 989.044 323.483C988.582 323.945 987.976 324.176 987.37 324.176Z" fill="#333333"/>
<path id="Vector_177" d="M1091.76 471C1091.15 471 1090.55 470.769 1090.09 470.307L1056.32 436.543C1055.4 435.618 1055.4 434.118 1056.32 433.194L1141.19 348.32C1142.12 347.396 1143.62 347.396 1144.54 348.32L1178.31 382.084C1179.23 383.009 1179.23 384.509 1178.31 385.433L1093.43 470.307C1092.97 470.769 1092.37 471 1091.76 471ZM1076.55 450.074L1091.76 465.284L1173.28 383.759L1142.87 353.344L1061.34 434.868L1076.55 450.074Z" fill="#333333"/>
<path id="Vector_178" d="M1130.01 398.983C1129.4 398.983 1128.8 398.752 1128.33 398.29C1127.41 397.365 1127.41 395.865 1128.33 394.941L1158.08 365.201C1159 364.276 1160.5 364.276 1161.42 365.201C1162.35 366.126 1162.35 367.625 1161.42 368.55L1131.68 398.29C1131.22 398.752 1130.61 398.983 1130.01 398.983Z" fill="#333333"/>
<path id="Vector_179" d="M1074.88 454.117C1074.27 454.117 1073.66 453.886 1073.2 453.423C1072.28 452.498 1072.28 450.999 1073.2 450.075L1121.07 402.203C1122 401.278 1123.5 401.278 1124.42 402.203C1125.35 403.128 1125.35 404.627 1124.42 405.551L1076.55 453.423C1076.09 453.885 1075.48 454.117 1074.88 454.117Z" fill="#333333"/>
<path id="Vector_180" d="M1155.41 407.345C1154.81 407.345 1154.2 407.113 1153.74 406.651L1144.65 397.556C1143.72 396.631 1143.72 395.132 1144.65 394.207C1145.57 393.283 1147.07 393.283 1147.99 394.207L1157.09 403.302C1158.01 404.227 1158.01 405.727 1157.09 406.651C1156.63 407.113 1156.02 407.345 1155.41 407.345Z" fill="#333333"/>
<path id="Vector_181" d="M1142.37 394.299C1141.76 394.299 1141.16 394.068 1140.7 393.606L1119.98 372.887C1119.05 371.962 1119.05 370.463 1119.98 369.538C1120.9 368.614 1122.4 368.614 1123.33 369.538L1144.04 390.257C1144.97 391.182 1144.97 392.682 1144.04 393.606C1143.58 394.068 1142.98 394.299 1142.37 394.299Z" fill="#333333"/>
<path id="Vector_182" d="M1134.19 428.565C1133.59 428.565 1132.98 428.334 1132.52 427.872L1098.75 394.108C1097.83 393.183 1097.83 391.683 1098.75 390.759C1099.68 389.834 1101.18 389.834 1102.1 390.759L1135.87 424.523C1136.79 425.448 1136.79 426.947 1135.87 427.872C1135.41 428.334 1134.8 428.565 1134.19 428.565Z" fill="#333333"/>
<path id="Vector_183" d="M1112.98 449.783C1112.37 449.783 1111.76 449.552 1111.3 449.089L1088.63 426.414C1087.7 425.489 1087.7 423.99 1088.63 423.065C1089.55 422.141 1091.05 422.141 1091.97 423.065L1114.65 445.74C1115.58 446.665 1115.58 448.164 1114.65 449.089C1114.19 449.551 1113.58 449.783 1112.98 449.783Z" fill="#333333"/>
<path id="Vector_184" d="M1085.4 422.211C1084.8 422.211 1084.19 421.98 1083.73 421.518L1077.54 415.325C1076.61 414.4 1076.61 412.901 1077.54 411.976C1078.46 411.052 1079.96 411.052 1080.89 411.976L1087.08 418.169C1088 419.094 1088 420.593 1087.08 421.518C1086.62 421.98 1086.01 422.211 1085.4 422.211Z" fill="#333333"/>
<path id="Vector_185" d="M1103.64 343.047C1099.33 343.047 1095.09 341.363 1091.86 338.136C1086.63 332.9 1085.45 324.999 1088.94 318.475C1089.55 317.321 1090.99 316.885 1092.14 317.502C1093.3 318.118 1093.73 319.553 1093.11 320.706C1090.66 325.305 1091.52 331.095 1095.21 334.787C1098.96 338.536 1104.62 339.377 1109.29 336.882C1110.45 336.266 1111.88 336.702 1112.5 337.855C1113.11 339.009 1112.68 340.444 1111.52 341.06C1109.02 342.396 1106.32 343.047 1103.64 343.047Z" fill="#333333"/>
<path id="Vector_186" d="M1070.18 396.995C1069.58 396.995 1068.97 396.764 1068.51 396.301L1057.32 385.106C1056.39 384.181 1056.39 382.682 1057.32 381.757C1058.24 380.833 1059.74 380.833 1060.66 381.757L1071.86 392.952C1072.78 393.877 1072.78 395.377 1071.86 396.301C1071.4 396.764 1070.79 396.995 1070.18 396.995Z" fill="#333333"/>
<path id="Vector_187" d="M1053.94 380.748C1053.33 380.748 1052.72 380.517 1052.26 380.054L1033.7 361.488C1032.77 360.563 1032.77 359.063 1033.7 358.139C1034.62 357.214 1036.12 357.214 1037.04 358.139L1055.61 376.705C1056.54 377.63 1056.54 379.13 1055.61 380.054C1055.15 380.517 1054.54 380.748 1053.94 380.748Z" fill="#333333"/>
<path id="Vector_188" d="M1030.97 424.161C1030.34 424.161 1029.74 423.912 1029.29 423.468L1006.53 400.708C1006.09 400.264 1005.84 399.662 1005.84 399.033C1005.84 398.405 1006.09 397.803 1006.53 397.359L1011.59 392.301C1012.51 391.376 1014.01 391.376 1014.94 392.301C1015.86 393.226 1015.86 394.725 1014.94 395.65L1011.56 399.033L1030.97 418.445L1034.35 415.061C1035.27 414.137 1036.77 414.137 1037.7 415.061C1038.62 415.986 1038.62 417.485 1037.7 418.41L1032.64 423.468C1032.2 423.912 1031.59 424.161 1030.97 424.161Z" fill="#333333"/>
<path id="Vector_189" d="M1052.78 402.35C1052.17 402.35 1051.57 402.119 1051.1 401.657C1050.18 400.732 1050.18 399.233 1051.1 398.308L1053.75 395.664L1034.34 376.253L1031.69 378.897C1030.77 379.821 1029.27 379.821 1028.34 378.897C1027.42 377.972 1027.42 376.472 1028.34 375.548L1032.66 371.23C1033.59 370.305 1035.09 370.305 1036.01 371.23L1058.77 393.99C1059.7 394.915 1059.7 396.415 1058.77 397.339L1054.45 401.657C1053.99 402.118 1053.38 402.35 1052.78 402.35Z" fill="#333333"/>
<path id="Vector_190" d="M1017.93 401.013C1017.31 401.013 1016.7 400.763 1016.26 400.319L1005.51 389.571C1005.07 389.127 1004.82 388.525 1004.82 387.897C1004.82 387.268 1005.07 386.666 1005.51 386.222L1022.27 369.468C1023.19 368.544 1024.69 368.544 1025.61 369.468L1036.36 380.216C1037.29 381.141 1037.29 382.64 1036.36 383.565L1019.61 400.319C1019.16 400.763 1018.56 401.013 1017.93 401.013ZM1010.53 387.897L1017.93 395.296L1031.34 381.891L1023.94 374.492L1010.53 387.897Z" fill="#333333"/>
<path id="Vector_191" d="M1042.1 425.183C1041.48 425.183 1040.87 424.933 1040.43 424.489L1029.68 413.741C1028.76 412.816 1028.76 411.317 1029.68 410.392L1046.44 393.638C1047.36 392.714 1048.86 392.714 1049.78 393.638L1060.53 404.386C1061.46 405.311 1061.46 406.81 1060.53 407.735L1043.78 424.489C1043.33 424.933 1042.73 425.183 1042.1 425.183ZM1034.71 412.066L1042.1 419.466L1055.51 406.061L1048.11 398.662L1034.71 412.066Z" fill="#333333"/>
<path id="Vector_192" d="M1079.58 329.445C1078.83 329.445 1078.13 329.003 1077.83 328.272C1077.43 327.305 1077.89 326.197 1078.86 325.798C1081.21 324.827 1083.7 324.335 1086.25 324.335C1087.3 324.335 1088.15 325.183 1088.15 326.229C1088.15 327.276 1087.3 328.124 1086.25 328.124C1084.2 328.124 1082.2 328.52 1080.3 329.301C1080.06 329.399 1079.82 329.445 1079.58 329.445Z" fill="white"/>
<path id="Vector_193" d="M1102.44 352.342C1102.2 352.342 1101.96 352.296 1101.72 352.198C1100.75 351.797 1100.29 350.689 1100.69 349.722C1101.48 347.833 1101.87 345.822 1101.87 343.746C1101.87 342.727 1101.77 341.706 1101.58 340.71C1100.98 337.673 1099.51 334.904 1097.3 332.699C1096.56 331.959 1096.56 330.76 1097.3 330.02C1098.04 329.28 1099.24 329.28 1099.98 330.02C1102.72 332.76 1104.56 336.204 1105.3 339.98C1105.54 341.214 1105.66 342.481 1105.66 343.745C1105.66 346.321 1105.17 348.821 1104.19 351.172C1103.89 351.902 1103.19 352.342 1102.44 352.342Z" fill="white"/>
<path id="Vector_194" d="M1045.05 362.024C1044.56 362.024 1044.08 361.839 1043.71 361.469C1042.97 360.729 1042.97 359.53 1043.71 358.79L1046.53 355.969C1047.27 355.229 1048.47 355.229 1049.21 355.969C1049.95 356.709 1049.95 357.908 1049.21 358.648L1046.39 361.469C1046.02 361.839 1045.53 362.024 1045.05 362.024Z" fill="white"/>
<path id="Vector_195" d="M1053.43 353.638C1052.95 353.638 1052.46 353.453 1052.09 353.083C1051.35 352.343 1051.35 351.144 1052.09 350.404L1067.37 335.124C1068.11 334.385 1069.31 334.385 1070.05 335.124C1070.79 335.864 1070.79 337.064 1070.05 337.804L1054.77 353.083C1054.4 353.453 1053.92 353.638 1053.43 353.638Z" fill="white"/>
<path id="Vector_196" d="M1013.55 389.718C1013.07 389.718 1012.58 389.533 1012.21 389.163C1011.47 388.423 1011.47 387.224 1012.21 386.484L1022.87 375.828C1023.61 375.088 1024.81 375.088 1025.55 375.828C1026.29 376.568 1026.29 377.767 1025.55 378.507L1014.89 389.163C1014.52 389.533 1014.03 389.718 1013.55 389.718Z" fill="white"/>
<path id="Vector_197" d="M1037.59 413.761C1037.11 413.761 1036.62 413.575 1036.25 413.206C1035.51 412.466 1035.51 411.266 1036.25 410.527L1046.91 399.871C1047.65 399.131 1048.85 399.131 1049.59 399.871C1050.33 400.611 1050.33 401.81 1049.59 402.55L1038.93 413.206C1038.56 413.575 1038.08 413.761 1037.59 413.761Z" fill="white"/>
</g>
<g id="small-planet" clip-path="url(#clip2_1_231)">
<path id="Vector_198" d="M278.011 263.206C278.011 289.792 267.093 313.823 249.493 331.067C236.748 343.561 220.495 352.487 202.349 356.239C196.102 357.537 189.632 358.216 183.001 358.216C181.408 358.216 179.827 358.177 178.257 358.099C128.775 355.666 89.2433 315.371 88.0183 265.583C87.996 264.87 87.9905 264.158 87.9905 263.439C87.9905 263.039 87.9905 262.638 87.996 262.242C88.2577 235.661 99.4381 211.697 117.261 194.609C129.9 182.493 145.885 173.835 163.691 170.166C167.611 169.353 171.62 168.785 175.701 168.474C178.112 168.29 180.545 168.195 183.001 168.195C204.387 168.195 224.12 175.261 239.999 187.182C263.078 204.514 278.011 232.114 278.011 263.206Z" fill="#1AA5E2"/>
<path id="Vector_199" d="M224.589 194.7C224.085 194.7 223.574 194.562 223.114 194.275C219.828 192.217 216.368 190.381 212.829 188.819C211.423 188.198 210.786 186.555 211.407 185.148C212.028 183.742 213.669 183.104 215.078 183.725C218.86 185.395 222.558 187.357 226.07 189.556C227.373 190.373 227.767 192.09 226.951 193.394C226.423 194.237 225.516 194.7 224.589 194.7Z" fill="white"/>
<path id="Vector_200" d="M237.45 327.072C236.706 327.072 235.964 326.776 235.416 326.19C234.366 325.067 234.425 323.305 235.547 322.255C251.903 306.953 261.284 285.374 261.284 263.05C261.284 240.598 252.28 219.7 235.932 204.206C234.816 203.148 234.769 201.387 235.827 200.27C236.884 199.154 238.646 199.107 239.762 200.164C257.231 216.721 266.852 239.053 266.852 263.049C266.852 286.908 256.828 309.97 239.351 326.32C238.815 326.823 238.131 327.072 237.45 327.072Z" fill="white"/>
<path id="Vector_201" d="M225.74 336.238C224.829 336.238 223.936 335.791 223.403 334.97C222.565 333.68 222.932 331.956 224.222 331.118C225.644 330.195 227.054 329.216 228.412 328.208C229.647 327.291 231.39 327.55 232.306 328.785C233.223 330.02 232.964 331.763 231.73 332.68C230.279 333.756 228.772 334.802 227.253 335.788C226.785 336.093 226.259 336.238 225.74 336.238Z" fill="white"/>
<path id="Vector_202" d="M131.221 215.046H119.529C117.991 215.046 116.745 213.8 116.745 212.262C116.745 210.725 117.991 209.478 119.529 209.478H131.221C132.759 209.478 134.005 210.725 134.005 212.262C134.005 213.8 132.759 215.046 131.221 215.046Z" fill="#B4CBF9"/>
<path id="Vector_203" d="M177.989 239.265H166.297C164.759 239.265 163.513 238.019 163.513 236.482C163.513 234.944 164.759 233.698 166.297 233.698H177.989C179.527 233.698 180.773 234.944 180.773 236.482C180.773 238.019 179.527 239.265 177.989 239.265Z" fill="#B4CBF9"/>
<path id="Vector_204" d="M246.47 239.265H234.778C233.241 239.265 231.995 238.019 231.995 236.482C231.995 234.944 233.241 233.698 234.778 233.698H246.47C248.008 233.698 249.254 234.944 249.254 236.482C249.254 238.019 248.008 239.265 246.47 239.265Z" fill="#B4CBF9"/>
<path id="Vector_205" d="M206.443 315.632H198.277C196.739 315.632 195.493 314.385 195.493 312.848C195.493 311.311 196.739 310.064 198.277 310.064H206.443C207.981 310.064 209.227 311.311 209.227 312.848C209.227 314.385 207.98 315.632 206.443 315.632Z" fill="#B4CBF9"/>
<path id="Vector_206" d="M196.192 281.208H188.026C186.489 281.208 185.243 279.961 185.243 278.424C185.243 276.886 186.489 275.64 188.026 275.64H196.192C197.73 275.64 198.976 276.886 198.976 278.424C198.976 279.961 197.73 281.208 196.192 281.208Z" fill="#B4CBF9"/>
<path id="Vector_207" d="M160.266 316.934H152.099C150.561 316.934 149.315 315.687 149.315 314.15C149.315 312.612 150.561 311.366 152.099 311.366H160.266C161.804 311.366 163.05 312.612 163.05 314.15C163.05 315.687 161.804 316.934 160.266 316.934Z" fill="#B4CBF9"/>
<path id="Vector_208" d="M152.192 307.747H133.818C132.28 307.747 131.034 306.5 131.034 304.963C131.034 303.425 132.28 302.179 133.818 302.179H152.192C153.73 302.179 154.976 303.425 154.976 304.963C154.976 306.5 153.73 307.747 152.192 307.747Z" fill="#B4CBF9"/>
<path id="Vector_209" d="M121.031 307.747H116.019C114.481 307.747 113.235 306.5 113.235 304.963C113.235 303.425 114.481 302.179 116.019 302.179H121.031C122.569 302.179 123.815 303.425 123.815 304.963C123.815 306.5 122.569 307.747 121.031 307.747Z" fill="#B4CBF9"/>
<path id="Vector_210" d="M165.462 249.287H159.673C158.135 249.287 156.889 248.04 156.889 246.503C156.889 244.966 158.135 243.719 159.673 243.719H165.462C166.999 243.719 168.246 244.966 168.246 246.503C168.246 248.04 166.999 249.287 165.462 249.287Z" fill="#B4CBF9"/>
<path id="Vector_211" opacity="0.25" d="M202.349 356.239C202.533 356.284 202.711 356.323 202.895 356.362C196.481 357.726 189.822 358.45 183.001 358.45C171.898 358.45 161.236 356.546 151.331 353.043C140.217 349.118 130.05 343.177 121.275 335.666C101.409 318.673 88.6364 293.629 88.0183 265.583C87.996 264.87 87.9905 264.158 87.9905 263.439C87.9905 263.039 87.9905 262.638 87.996 262.242C88.3078 237.081 98.4024 214.27 114.649 197.449C115.518 196.553 116.409 195.673 117.311 194.81C117.294 194.743 117.272 194.676 117.261 194.609C129.9 182.494 145.885 173.836 163.691 170.166C163.753 170.233 163.808 170.3 163.864 170.367C170.044 169.103 176.442 168.429 183.001 168.429C189.827 168.429 196.481 169.159 202.901 170.528C197.366 171.709 192.004 173.362 186.871 175.456C180.896 177.9 175.228 180.94 169.933 184.492C170.05 185.511 170.122 186.547 170.122 187.599C170.122 202.454 158.079 214.498 143.224 214.498C142.611 214.498 142.004 214.47 141.403 214.431C132.767 228.74 127.79 245.511 127.79 263.439C127.79 292.348 140.702 318.239 161.074 335.666C169.849 343.177 180.016 349.118 191.13 353.043C194.777 354.335 198.519 355.404 202.349 356.239Z" fill="black"/>
<path id="Vector_212" d="M182.999 361C181.368 361 179.726 360.959 178.119 360.88C126.017 358.317 85.2054 315.414 85.2054 263.206C85.2054 238.392 94.5122 214.73 111.41 196.581C128.22 178.527 150.977 167.559 175.489 165.698C177.983 165.508 180.509 165.412 182.999 165.412C204.35 165.412 224.638 172.17 241.669 184.956C253.551 193.879 263.395 205.571 270.138 218.768C277.208 232.608 280.794 247.559 280.794 263.206C280.794 289.703 270.369 314.51 251.439 333.056C233.055 351.076 208.749 361 182.999 361ZM182.999 170.979C180.65 170.979 178.265 171.07 175.912 171.25C152.798 173.005 131.339 183.348 115.485 200.375C99.55 217.491 90.7733 239.804 90.7733 263.206C90.7733 312.441 129.26 352.902 178.393 355.319H178.394C179.911 355.394 181.46 355.432 182.999 355.432C207.282 355.432 230.204 346.073 247.542 329.079C265.395 311.588 275.226 288.194 275.226 263.206C275.226 248.447 271.846 234.348 265.18 221.301C258.82 208.854 249.534 197.825 238.326 189.408C222.267 177.352 203.135 170.979 182.999 170.979Z" fill="#333333"/>
<path id="Vector_213" d="M118.196 197.575C133.05 197.575 145.091 185.534 145.091 170.68C145.091 155.825 133.05 143.784 118.196 143.784C103.342 143.784 91.3002 155.825 91.3002 170.68C91.3002 185.534 103.342 197.575 118.196 197.575Z" fill="#F7DB9C"/>
<path id="Vector_214" opacity="0.25" d="M91.3002 170.678C91.3002 185.533 103.338 197.576 118.193 197.576C120.498 197.576 122.742 197.287 124.874 196.741C113.254 193.768 104.663 183.228 104.663 170.678C104.663 158.128 113.254 147.594 124.874 144.62C122.742 144.075 120.498 143.785 118.193 143.785C103.338 143.785 91.3002 155.823 91.3002 170.678Z" fill="black"/>
<path id="Vector_215" d="M118.196 200.359C101.83 200.359 88.5156 187.045 88.5156 170.68C88.5162 154.314 101.831 141 118.196 141C134.561 141 147.875 154.314 147.875 170.68C147.875 187.045 134.562 200.359 118.196 200.359ZM118.196 146.568C104.9 146.568 94.0835 157.385 94.0835 170.68C94.0835 183.975 104.9 194.791 118.196 194.791C131.491 194.791 142.308 183.975 142.308 170.68C142.308 157.385 131.491 146.568 118.196 146.568Z" fill="#333333"/>
<path id="Vector_216" d="M111.527 167.988C111.343 167.988 111.16 167.971 110.982 167.932C110.804 167.898 110.631 167.843 110.464 167.776C110.291 167.704 110.13 167.62 109.979 167.52C109.829 167.42 109.684 167.303 109.556 167.175C109.428 167.047 109.311 166.902 109.211 166.752C109.111 166.601 109.027 166.44 108.955 166.267C108.888 166.1 108.832 165.927 108.799 165.749C108.76 165.571 108.743 165.387 108.743 165.204C108.743 164.474 109.038 163.756 109.556 163.238C109.684 163.11 109.829 162.993 109.979 162.893C110.13 162.793 110.292 162.704 110.464 162.637C110.631 162.564 110.803 162.514 110.982 162.475C111.884 162.292 112.847 162.592 113.493 163.238C114.011 163.756 114.312 164.474 114.312 165.204C114.312 165.387 114.289 165.571 114.256 165.749C114.222 165.927 114.167 166.1 114.095 166.267C114.028 166.44 113.939 166.601 113.838 166.752C113.738 166.902 113.621 167.047 113.493 167.175C112.975 167.692 112.256 167.988 111.527 167.988Z" fill="#333333"/>
<path id="Vector_217" d="M115.425 185.248C115.241 185.248 115.057 185.231 114.879 185.192C114.701 185.159 114.528 185.103 114.361 185.036C114.189 184.964 114.027 184.88 113.877 184.78C113.726 184.68 113.582 184.563 113.454 184.435C112.936 183.917 112.641 183.199 112.641 182.464C112.641 181.735 112.936 181.016 113.454 180.499C113.581 180.37 113.726 180.254 113.877 180.153C114.028 180.053 114.189 179.964 114.361 179.897C114.528 179.825 114.701 179.775 114.879 179.736C115.781 179.558 116.745 179.853 117.391 180.499C117.908 181.016 118.209 181.735 118.209 182.464C118.209 183.199 117.908 183.917 117.391 184.435C117.263 184.563 117.123 184.68 116.967 184.78C116.817 184.88 116.655 184.964 116.489 185.036C116.322 185.103 116.143 185.159 115.97 185.192C115.787 185.231 115.603 185.248 115.425 185.248Z" fill="#333333"/>
<path id="Vector_218" d="M121.828 166.039C121.093 166.039 120.374 165.744 119.857 165.226C119.729 165.098 119.612 164.953 119.511 164.803C119.411 164.652 119.328 164.491 119.255 164.324C119.188 164.151 119.133 163.979 119.099 163.801C119.061 163.622 119.044 163.439 119.044 163.255C119.044 163.077 119.06 162.893 119.099 162.715C119.133 162.537 119.188 162.358 119.255 162.191C119.328 162.024 119.411 161.863 119.511 161.713C119.612 161.557 119.729 161.418 119.857 161.289C120.503 160.644 121.466 160.343 122.368 160.527C122.546 160.56 122.725 160.616 122.891 160.688C123.058 160.755 123.22 160.838 123.369 160.944C123.525 161.044 123.664 161.161 123.793 161.289C123.921 161.418 124.038 161.557 124.138 161.713C124.244 161.863 124.328 162.024 124.394 162.191C124.467 162.358 124.522 162.537 124.556 162.715C124.594 162.893 124.612 163.077 124.612 163.255C124.612 163.439 124.595 163.622 124.556 163.801C124.522 163.979 124.467 164.151 124.394 164.324C124.328 164.491 124.244 164.652 124.138 164.803C124.038 164.953 123.921 165.098 123.793 165.226C123.665 165.354 123.526 165.471 123.369 165.571C123.219 165.671 123.058 165.755 122.891 165.827C122.724 165.894 122.546 165.95 122.368 165.983C122.19 166.022 122.006 166.039 121.828 166.039Z" fill="#333333"/>
<path id="Vector_219" d="M130.896 186.457C130.183 186.457 129.47 186.185 128.927 185.642C127.84 184.554 127.84 182.792 128.927 181.704C132.76 177.872 134.432 172.391 133.398 167.045C133.107 165.535 134.094 164.075 135.604 163.783C137.113 163.491 138.574 164.479 138.865 165.989C140.249 173.153 138.006 180.5 132.864 185.642C132.321 186.185 131.608 186.457 130.896 186.457Z" fill="white"/>
<path id="Vector_220" d="M130.898 159.446C130.714 159.446 130.531 159.424 130.352 159.391C130.175 159.352 129.996 159.302 129.83 159.229C129.663 159.162 129.501 159.073 129.351 158.973C129.2 158.873 129.056 158.756 128.928 158.628C128.8 158.5 128.683 158.355 128.582 158.205C128.482 158.054 128.393 157.893 128.326 157.726C128.254 157.559 128.204 157.381 128.165 157.202C128.131 157.024 128.115 156.841 128.115 156.662C128.115 156.479 128.131 156.295 128.165 156.117C128.204 155.939 128.254 155.766 128.326 155.593C128.393 155.426 128.482 155.265 128.582 155.115C128.683 154.964 128.8 154.819 128.928 154.691C129.055 154.563 129.2 154.446 129.351 154.346C129.502 154.246 129.663 154.157 129.83 154.09C129.997 154.018 130.175 153.968 130.352 153.929C130.709 153.856 131.082 153.856 131.438 153.929C131.616 153.968 131.795 154.018 131.962 154.09C132.129 154.157 132.29 154.246 132.44 154.346C132.591 154.446 132.735 154.563 132.864 154.691C132.991 154.819 133.108 154.964 133.208 155.115C133.309 155.265 133.398 155.426 133.465 155.593C133.537 155.766 133.587 155.939 133.626 156.117C133.66 156.295 133.682 156.479 133.682 156.662C133.682 156.841 133.66 157.024 133.626 157.202C133.587 157.381 133.537 157.559 133.465 157.726C133.398 157.893 133.309 158.054 133.208 158.205C133.108 158.355 132.991 158.5 132.864 158.628C132.735 158.756 132.591 158.873 132.44 158.973C132.289 159.073 132.128 159.162 131.962 159.229C131.795 159.302 131.616 159.352 131.438 159.391C131.259 159.425 131.076 159.446 130.898 159.446Z" fill="white"/>
</g>
</g>
</svg>
